solid man
facet normal 0.0 0.0 -1.0
outer loop
vertex -9.65925826289068 2.58819045102521 0.0
vertex -9.65925826289068 -2.5881904510252 0.0
vertex -10.0 1.22464679914735e-015 0.0
endloop
endfacet
facet normal 0.0 0.0 -1.0
outer loop
vertex -9.65925826289068 -2.5881904510252 0.0
vertex -9.65925826289068 2.58819045102521 0.0
vertex -8.66025403784439 -5.0 0.0
endloop
endfacet
facet normal 0.0 0.0 -1.0
outer loop
vertex -8.66025403784439 -5.0 0.0
vertex -9.65925826289068 2.58819045102521 0.0
vertex -8.66025403784439 5.0 0.0
endloop
endfacet
facet normal 0.0 0.0 -1.0
outer loop
vertex -8.66025403784439 -5.0 0.0
vertex -8.66025403784439 5.0 0.0
vertex -7.07106781186548 -7.07106781186547 0.0
endloop
endfacet
facet normal 0.0 0.0 -1.0
outer loop
vertex -7.07106781186548 -7.07106781186547 0.0
vertex -8.66025403784439 5.0 0.0
vertex -7.07106781186547 7.07106781186548 0.0
endloop
endfacet
facet normal 0.0 0.0 -1.0
outer loop
vertex -7.07106781186548 -7.07106781186547 0.0
vertex -7.07106781186547 7.07106781186548 0.0
vertex -5.0 -8.66025403784438 0.0
endloop
endfacet
facet normal 0.0 0.0 -1.0
outer loop
vertex -5.0 -8.66025403784438 0.0
vertex -7.07106781186547 7.07106781186548 0.0
vertex -5.0 8.66025403784439 0.0
endloop
endfacet
facet normal 0.0 0.0 -1.0
outer loop
vertex -5.0 -8.66025403784438 0.0
vertex -5.0 8.66025403784439 0.0
vertex -2.58819045102522 -9.65925826289068 0.0
endloop
endfacet
facet normal 0.0 0.0 -1.0
outer loop
vertex -2.58819045102522 -9.65925826289068 0.0
vertex -5.0 8.66025403784439 0.0
vertex -2.58819045102521 9.65925826289068 0.0
endloop
endfacet
facet normal 0.0 0.0 -1.0
outer loop
vertex -2.58819045102522 -9.65925826289068 0.0
vertex -2.58819045102521 9.65925826289068 0.0
vertex -1.83697019872103e-015 -10.0 0.0
endloop
endfacet
facet normal 0.0 0.0 -1.0
outer loop
vertex -1.83697019872103e-015 -10.0 0.0
vertex -2.58819045102521 9.65925826289068 0.0
vertex 6.12323399573677e-016 10.0 0.0
endloop
endfacet
facet normal 0.0 0.0 -1.0
outer loop
vertex -1.83697019872103e-015 -10.0 0.0
vertex 6.12323399573677e-016 10.0 0.0
vertex 2.5881904510252 -9.65925826289068 0.0
endloop
endfacet
facet normal 0.0 0.0 -1.0
outer loop
vertex 2.5881904510252 -9.65925826289068 0.0
vertex 6.12323399573677e-016 10.0 0.0
vertex 2.58819045102521 9.65925826289068 0.0
endloop
endfacet
facet normal 0.0 0.0 -1.0
outer loop
vertex 2.5881904510252 -9.65925826289068 0.0
vertex 2.58819045102521 9.65925826289068 0.0
vertex 4.99999999999999 -8.66025403784439 0.0
endloop
endfacet
facet normal 0.0 0.0 -1.0
outer loop
vertex 4.99999999999999 -8.66025403784439 0.0
vertex 2.58819045102521 9.65925826289068 0.0
vertex 5.0 8.66025403784439 0.0
endloop
endfacet
facet normal 0.0 0.0 -1.0
outer loop
vertex 4.99999999999999 -8.66025403784439 0.0
vertex 5.0 8.66025403784439 0.0
vertex 7.07106781186547 -7.07106781186548 0.0
endloop
endfacet
facet normal 0.0 0.0 -1.0
outer loop
vertex 7.07106781186547 -7.07106781186548 0.0
vertex 5.0 8.66025403784439 0.0
vertex 7.07106781186548 7.07106781186547 0.0
endloop
endfacet
facet normal 0.0 0.0 -1.0
outer loop
vertex 7.07106781186547 -7.07106781186548 0.0
vertex 7.07106781186548 7.07106781186547 0.0
vertex 8.66025403784438 -5.0 0.0
endloop
endfacet
facet normal 0.0 0.0 -1.0
outer loop
vertex 8.66025403784438 -5.0 0.0
vertex 7.07106781186548 7.07106781186547 0.0
vertex 8.66025403784439 5.0 0.0
endloop
endfacet
facet normal 0.0 0.0 -1.0
outer loop
vertex 8.66025403784438 -5.0 0.0
vertex 8.66025403784439 5.0 0.0
vertex 9.65925826289068 -2.58819045102522 0.0
endloop
endfacet
facet normal 0.0 0.0 -1.0
outer loop
vertex 9.65925826289068 -2.58819045102522 0.0
vertex 8.66025403784439 5.0 0.0
vertex 9.65925826289068 2.58819045102521 0.0
endloop
endfacet
facet normal 0.0 0.0 -1.0
outer loop
vertex 9.65925826289068 -2.58819045102522 0.0
vertex 9.65925826289068 2.58819045102521 0.0
vertex 10.0 0.0 0.0
endloop
endfacet
facet normal -1.12137963436802e-033 2.49273588240298e-032 1.0
outer loop
vertex -9.65925826289068 -2.5881904510252 2.0
vertex -9.65925826289068 2.58819045102521 2.0
vertex -10.0 1.22464679914735e-015 2.0
endloop
endfacet
facet normal -1.12137963436802e-033 2.49273588240298e-032 1.0
outer loop
vertex -9.65925826289068 2.58819045102521 2.0
vertex -9.65925826289068 -2.5881904510252 2.0
vertex -8.66025403784439 -5.0 2.0
endloop
endfacet
facet normal -1.12137963436802e-033 2.49273588240298e-032 1.0
outer loop
vertex -9.65925826289068 2.58819045102521 2.0
vertex -8.66025403784439 -5.0 2.0
vertex -8.66025403784439 5.0 2.0
endloop
endfacet
facet normal -1.12137963436802e-033 2.49273588240298e-032 1.0
outer loop
vertex -8.66025403784439 5.0 2.0
vertex -8.66025403784439 -5.0 2.0
vertex -7.07106781186548 -7.07106781186547 2.0
endloop
endfacet
facet normal -1.12137963436802e-033 2.49273588240298e-032 1.0
outer loop
vertex -8.66025403784439 5.0 2.0
vertex -7.07106781186548 -7.07106781186547 2.0
vertex -7.07106781186547 7.07106781186548 2.0
endloop
endfacet
facet normal -1.12137963436802e-033 2.49273588240298e-032 1.0
outer loop
vertex -7.07106781186547 7.07106781186548 2.0
vertex -7.07106781186548 -7.07106781186547 2.0
vertex -5.0 -8.66025403784438 2.0
endloop
endfacet
facet normal -1.12137963436802e-033 2.49273588240298e-032 1.0
outer loop
vertex -7.07106781186547 7.07106781186548 2.0
vertex -5.0 -8.66025403784438 2.0
vertex -5.0 8.66025403784439 2.0
endloop
endfacet
facet normal -1.12137963436802e-033 2.49273588240298e-032 1.0
outer loop
vertex -5.0 8.66025403784439 2.0
vertex -5.0 -8.66025403784438 2.0
vertex -5.0 1.48982294257187e-017 2.00000000000001
endloop
endfacet
facet normal -1.12137963436802e-033 2.49273588240298e-032 1.0
outer loop
vertex -5.0 8.66025403784439 2.0
vertex -5.0 1.48982294257187e-017 2.00000000000001
vertex -4.93185165257814 0.517638090205043 2.00000000000001
endloop
endfacet
facet normal -1.12137963436802e-033 2.49273588240298e-032 1.0
outer loop
vertex -5.0 8.66025403784439 2.0
vertex -4.93185165257814 0.517638090205043 2.00000000000001
vertex -2.58819045102521 9.65925826289068 2.0
endloop
endfacet
facet normal -1.12137963436802e-033 2.49273588240298e-032 1.0
outer loop
vertex -2.58819045102521 9.65925826289068 2.0
vertex -4.93185165257814 0.517638090205043 2.00000000000001
vertex -4.73205080756888 1.0 2.00000000000001
endloop
endfacet
facet normal -1.12137963436802e-033 2.49273588240298e-032 1.0
outer loop
vertex -2.58819045102521 9.65925826289068 2.0
vertex -4.73205080756888 1.0 2.00000000000001
vertex -4.41421356237309 1.4142135623731 2.00000000000001
endloop
endfacet
facet normal -1.12137963436802e-033 2.49273588240298e-032 1.0
outer loop
vertex -2.58819045102521 9.65925826289068 2.0
vertex -4.41421356237309 1.4142135623731 2.00000000000001
vertex -4.0 1.73205080756888 2.00000000000001
endloop
endfacet
facet normal -1.12137963436802e-033 2.49273588240298e-032 1.0
outer loop
vertex -2.58819045102521 9.65925826289068 2.0
vertex -4.0 1.73205080756888 2.00000000000001
vertex -3.51763809020504 1.93185165257814 2.00000000000001
endloop
endfacet
facet normal -1.12137963436802e-033 2.49273588240298e-032 1.0
outer loop
vertex -2.58819045102521 9.65925826289068 2.0
vertex -3.51763809020504 1.93185165257814 2.00000000000001
vertex -3.0 2.0 2.00000000000001
endloop
endfacet
facet normal -1.12137963436802e-033 2.49273588240298e-032 1.0
outer loop
vertex -2.58819045102521 9.65925826289068 2.0
vertex -3.0 2.0 2.00000000000001
vertex -2.48236190979496 1.93185165257814 2.00000000000001
endloop
endfacet
facet normal -1.12137963436802e-033 2.49273588240298e-032 1.0
outer loop
vertex -2.58819045102521 9.65925826289068 2.0
vertex -2.48236190979496 1.93185165257814 2.00000000000001
vertex 6.12323399573677e-016 10.0 2.0
endloop
endfacet
facet normal -1.12137963436802e-033 2.49273588240298e-032 1.0
outer loop
vertex 6.12323399573677e-016 10.0 2.0
vertex -2.48236190979496 1.93185165257814 2.00000000000001
vertex -2.0 1.73205080756888 2.00000000000001
endloop
endfacet
facet normal -1.12137963436802e-033 2.49273588240298e-032 1.0
outer loop
vertex 6.12323399573677e-016 10.0 2.0
vertex -2.0 1.73205080756888 2.00000000000001
vertex -1.58578643762691 1.4142135623731 2.00000000000001
endloop
endfacet
facet normal -1.12137963436802e-033 2.49273588240298e-032 1.0
outer loop
vertex 6.12323399573677e-016 10.0 2.0
vertex -1.58578643762691 1.4142135623731 2.00000000000001
vertex -1.26794919243112 1.0 2.00000000000001
endloop
endfacet
facet normal -1.12137963436802e-033 2.49273588240298e-032 1.0
outer loop
vertex 6.12323399573677e-016 10.0 2.0
vertex -1.26794919243112 1.0 2.00000000000001
vertex -1.06814834742186 0.517638090205043 2.00000000000001
endloop
endfacet
facet normal -1.12137963436802e-033 2.49273588240298e-032 1.0
outer loop
vertex 6.12323399573677e-016 10.0 2.0
vertex -1.06814834742186 0.517638090205043 2.00000000000001
vertex -1.0 1.6400143716777e-015 2.00000000000001
endloop
endfacet
facet normal -1.12137963436802e-033 2.49273588240298e-032 1.0
outer loop
vertex 6.12323399573677e-016 10.0 2.0
vertex -1.0 1.6400143716777e-015 2.00000000000001
vertex -1.83697019872103e-015 -10.0 2.0
endloop
endfacet
facet normal -1.12137963436802e-033 2.49273588240298e-032 1.0
outer loop
vertex 6.12323399573677e-016 10.0 2.0
vertex -1.83697019872103e-015 -10.0 2.0
vertex 1.0 1.07238566038118e-015 2.0
endloop
endfacet
facet normal -1.12137963436802e-033 2.49273588240298e-032 1.0
outer loop
vertex 1.0 1.07238566038118e-015 2.0
vertex -1.83697019872103e-015 -10.0 2.0
vertex 1.06814834742186 -0.51763809020504 2.0
endloop
endfacet
facet normal -1.12137963436802e-033 2.49273588240298e-032 1.0
outer loop
vertex 1.06814834742186 -0.51763809020504 2.0
vertex -1.83697019872103e-015 -10.0 2.0
vertex 2.5881904510252 -9.65925826289068 2.0
endloop
endfacet
facet normal -1.12137963436802e-033 2.49273588240298e-032 1.0
outer loop
vertex 1.06814834742186 -0.51763809020504 2.0
vertex 2.5881904510252 -9.65925826289068 2.0
vertex 1.26794919243112 -0.999999999999998 2.0
endloop
endfacet
facet normal -1.12137963436802e-033 2.49273588240298e-032 1.0
outer loop
vertex 1.26794919243112 -0.999999999999998 2.0
vertex 2.5881904510252 -9.65925826289068 2.0
vertex 1.5857864376269 -1.41421356237309 2.0
endloop
endfacet
facet normal -1.12137963436802e-033 2.49273588240298e-032 1.0
outer loop
vertex 1.5857864376269 -1.41421356237309 2.0
vertex 2.5881904510252 -9.65925826289068 2.0
vertex 2.0 -1.73205080756888 2.0
endloop
endfacet
facet normal -1.12137963436802e-033 2.49273588240298e-032 1.0
outer loop
vertex 2.0 -1.73205080756888 2.0
vertex 2.5881904510252 -9.65925826289068 2.0
vertex 2.48236190979496 -1.93185165257814 2.0
endloop
endfacet
facet normal -1.12137963436802e-033 2.49273588240298e-032 1.0
outer loop
vertex 2.48236190979496 -1.93185165257814 2.0
vertex 2.5881904510252 -9.65925826289068 2.0
vertex 3.0 -2.0 2.0
endloop
endfacet
facet normal -1.12137963436802e-033 2.49273588240298e-032 1.0
outer loop
vertex 3.0 -2.0 2.0
vertex 2.5881904510252 -9.65925826289068 2.0
vertex 4.99999999999999 -8.66025403784439 2.0
endloop
endfacet
facet normal -1.12137963436802e-033 2.49273588240298e-032 1.0
outer loop
vertex 3.0 -2.0 2.0
vertex 4.99999999999999 -8.66025403784439 2.0
vertex 3.51763809020504 -1.93185165257814 2.0
endloop
endfacet
facet normal -1.12137963436802e-033 2.49273588240298e-032 1.0
outer loop
vertex 3.51763809020504 -1.93185165257814 2.0
vertex 4.99999999999999 -8.66025403784439 2.0
vertex 4.0 -1.73205080756888 2.0
endloop
endfacet
facet normal -1.12137963436802e-033 2.49273588240298e-032 1.0
outer loop
vertex 4.0 -1.73205080756888 2.0
vertex 4.99999999999999 -8.66025403784439 2.0
vertex 4.41421356237309 -1.41421356237309 2.0
endloop
endfacet
facet normal -1.12137963436802e-033 2.49273588240298e-032 1.0
outer loop
vertex 4.41421356237309 -1.41421356237309 2.0
vertex 4.99999999999999 -8.66025403784439 2.0
vertex 4.73205080756888 -1.0 2.0
endloop
endfacet
facet normal -1.12137963436802e-033 2.49273588240298e-032 1.0
outer loop
vertex 4.73205080756888 -1.0 2.0
vertex 4.99999999999999 -8.66025403784439 2.0
vertex 4.93185165257814 -0.517638090205041 2.0
endloop
endfacet
facet normal -1.12137963436802e-033 2.49273588240298e-032 1.0
outer loop
vertex 4.93185165257814 -0.517638090205041 2.0
vertex 4.99999999999999 -8.66025403784439 2.0
vertex 5.0 5.82526940722239e-016 2.0
endloop
endfacet
facet normal -1.12137963436802e-033 2.49273588240298e-032 1.0
outer loop
vertex 5.0 5.82526940722239e-016 2.0
vertex 4.99999999999999 -8.66025403784439 2.0
vertex 7.07106781186547 -7.07106781186548 2.0
endloop
endfacet
facet normal -1.12137963436802e-033 2.49273588240298e-032 1.0
outer loop
vertex 5.0 5.82526940722239e-016 2.0
vertex 7.07106781186547 -7.07106781186548 2.0
vertex 5.0 8.66025403784439 2.0
endloop
endfacet
facet normal -1.12137963436802e-033 2.49273588240298e-032 1.0
outer loop
vertex 5.0 8.66025403784439 2.0
vertex 7.07106781186547 -7.07106781186548 2.0
vertex 7.07106781186548 7.07106781186547 2.0
endloop
endfacet
facet normal -1.12137963436802e-033 2.49273588240298e-032 1.0
outer loop
vertex 7.07106781186548 7.07106781186547 2.0
vertex 7.07106781186547 -7.07106781186548 2.0
vertex 8.66025403784438 -5.0 2.0
endloop
endfacet
facet normal -1.12137963436802e-033 2.49273588240298e-032 1.0
outer loop
vertex 7.07106781186548 7.07106781186547 2.0
vertex 8.66025403784438 -5.0 2.0
vertex 8.66025403784439 5.0 2.0
endloop
endfacet
facet normal -1.12137963436802e-033 2.49273588240298e-032 1.0
outer loop
vertex 8.66025403784439 5.0 2.0
vertex 8.66025403784438 -5.0 2.0
vertex 9.65925826289068 -2.58819045102522 2.0
endloop
endfacet
facet normal -1.12137963436802e-033 2.49273588240298e-032 1.0
outer loop
vertex 8.66025403784439 5.0 2.0
vertex 9.65925826289068 -2.58819045102522 2.0
vertex 9.65925826289068 2.58819045102521 2.0
endloop
endfacet
facet normal -1.12137963436802e-033 2.49273588240298e-032 1.0
outer loop
vertex 9.65925826289068 2.58819045102521 2.0
vertex 9.65925826289068 -2.58819045102522 2.0
vertex 10.0 0.0 2.0
endloop
endfacet
facet normal -1.12137963436802e-033 2.49273588240298e-032 1.0
outer loop
vertex 6.12323399573677e-016 10.0 2.0
vertex 1.06814834742186 0.517638090205044 2.0
vertex 2.58819045102521 9.65925826289068 2.0
endloop
endfacet
facet normal -1.12137963436802e-033 2.49273588240298e-032 1.0
outer loop
vertex 1.06814834742186 0.517638090205044 2.0
vertex 6.12323399573677e-016 10.0 2.0
vertex 1.0 1.07238566038118e-015 2.0
endloop
endfacet
facet normal -1.12137963436802e-033 2.49273588240298e-032 1.0
outer loop
vertex 2.58819045102521 9.65925826289068 2.0
vertex 1.06814834742186 0.517638090205044 2.0
vertex 1.26794919243112 1.0 2.0
endloop
endfacet
facet normal -1.12137963436802e-033 2.49273588240298e-032 1.0
outer loop
vertex 2.58819045102521 9.65925826289068 2.0
vertex 1.26794919243112 1.0 2.0
vertex 1.58578643762691 1.4142135623731 2.0
endloop
endfacet
facet normal -1.12137963436802e-033 2.49273588240298e-032 1.0
outer loop
vertex 2.58819045102521 9.65925826289068 2.0
vertex 1.58578643762691 1.4142135623731 2.0
vertex 2.0 1.73205080756888 2.0
endloop
endfacet
facet normal -1.12137963436802e-033 2.49273588240298e-032 1.0
outer loop
vertex 2.58819045102521 9.65925826289068 2.0
vertex 2.0 1.73205080756888 2.0
vertex 2.48236190979496 1.93185165257814 2.0
endloop
endfacet
facet normal -1.12137963436802e-033 2.49273588240298e-032 1.0
outer loop
vertex 2.58819045102521 9.65925826289068 2.0
vertex 2.48236190979496 1.93185165257814 2.0
vertex 3.0 2.0 2.0
endloop
endfacet
facet normal -1.12137963436802e-033 2.49273588240298e-032 1.0
outer loop
vertex 2.58819045102521 9.65925826289068 2.0
vertex 3.0 2.0 2.0
vertex 5.0 8.66025403784439 2.0
endloop
endfacet
facet normal -1.12137963436802e-033 2.49273588240298e-032 1.0
outer loop
vertex 5.0 8.66025403784439 2.0
vertex 3.0 2.0 2.0
vertex 3.51763809020504 1.93185165257814 2.0
endloop
endfacet
facet normal -1.12137963436802e-033 2.49273588240298e-032 1.0
outer loop
vertex 5.0 8.66025403784439 2.0
vertex 3.51763809020504 1.93185165257814 2.0
vertex 4.0 1.73205080756888 2.0
endloop
endfacet
facet normal -1.12137963436802e-033 2.49273588240298e-032 1.0
outer loop
vertex 5.0 8.66025403784439 2.0
vertex 4.0 1.73205080756888 2.0
vertex 4.41421356237309 1.4142135623731 2.0
endloop
endfacet
facet normal -1.12137963436802e-033 2.49273588240298e-032 1.0
outer loop
vertex 5.0 8.66025403784439 2.0
vertex 4.41421356237309 1.4142135623731 2.0
vertex 4.73205080756888 1.0 2.0
endloop
endfacet
facet normal -1.12137963436802e-033 2.49273588240298e-032 1.0
outer loop
vertex 5.0 8.66025403784439 2.0
vertex 4.73205080756888 1.0 2.0
vertex 4.93185165257814 0.517638090205042 2.0
endloop
endfacet
facet normal -1.12137963436802e-033 2.49273588240298e-032 1.0
outer loop
vertex 5.0 8.66025403784439 2.0
vertex 4.93185165257814 0.517638090205042 2.0
vertex 5.0 5.82526940722239e-016 2.0
endloop
endfacet
facet normal -1.12137963436802e-033 2.49273588240298e-032 1.0
outer loop
vertex -5.0 -8.66025403784438 2.0
vertex -4.93185165257814 -0.517638090205041 2.00000000000001
vertex -5.0 1.48982294257187e-017 2.00000000000001
endloop
endfacet
facet normal -1.12137963436802e-033 2.49273588240298e-032 1.0
outer loop
vertex -4.93185165257814 -0.517638090205041 2.00000000000001
vertex -5.0 -8.66025403784438 2.0
vertex -2.58819045102522 -9.65925826289068 2.0
endloop
endfacet
facet normal -1.12137963436802e-033 2.49273588240298e-032 1.0
outer loop
vertex -4.93185165257814 -0.517638090205041 2.00000000000001
vertex -2.58819045102522 -9.65925826289068 2.0
vertex -4.73205080756888 -0.999999999999999 2.00000000000001
endloop
endfacet
facet normal -1.12137963436802e-033 2.49273588240298e-032 1.0
outer loop
vertex -4.73205080756888 -0.999999999999999 2.00000000000001
vertex -2.58819045102522 -9.65925826289068 2.0
vertex -4.41421356237309 -1.41421356237309 2.00000000000001
endloop
endfacet
facet normal -1.12137963436802e-033 2.49273588240298e-032 1.0
outer loop
vertex -4.41421356237309 -1.41421356237309 2.00000000000001
vertex -2.58819045102522 -9.65925826289068 2.0
vertex -4.0 -1.73205080756888 2.00000000000001
endloop
endfacet
facet normal -1.12137963436802e-033 2.49273588240298e-032 1.0
outer loop
vertex -4.0 -1.73205080756888 2.00000000000001
vertex -2.58819045102522 -9.65925826289068 2.0
vertex -3.51763809020504 -1.93185165257814 2.00000000000001
endloop
endfacet
facet normal -1.12137963436802e-033 2.49273588240298e-032 1.0
outer loop
vertex -3.51763809020504 -1.93185165257814 2.00000000000001
vertex -2.58819045102522 -9.65925826289068 2.0
vertex -3.0 -2.0 2.00000000000001
endloop
endfacet
facet normal -1.12137963436802e-033 2.49273588240298e-032 1.0
outer loop
vertex -3.0 -2.0 2.00000000000001
vertex -2.58819045102522 -9.65925826289068 2.0
vertex -2.48236190979496 -1.93185165257813 2.00000000000001
endloop
endfacet
facet normal -1.12137963436802e-033 2.49273588240298e-032 1.0
outer loop
vertex -2.48236190979496 -1.93185165257813 2.00000000000001
vertex -2.58819045102522 -9.65925826289068 2.0
vertex -1.83697019872103e-015 -10.0 2.0
endloop
endfacet
facet normal -1.12137963436802e-033 2.49273588240298e-032 1.0
outer loop
vertex -2.48236190979496 -1.93185165257813 2.00000000000001
vertex -1.83697019872103e-015 -10.0 2.0
vertex -2.0 -1.73205080756888 2.00000000000001
endloop
endfacet
facet normal -1.12137963436802e-033 2.49273588240298e-032 1.0
outer loop
vertex -2.0 -1.73205080756888 2.00000000000001
vertex -1.83697019872103e-015 -10.0 2.0
vertex -1.5857864376269 -1.41421356237309 2.00000000000001
endloop
endfacet
facet normal -1.12137963436802e-033 2.49273588240298e-032 1.0
outer loop
vertex -1.5857864376269 -1.41421356237309 2.00000000000001
vertex -1.83697019872103e-015 -10.0 2.0
vertex -1.26794919243112 -0.999999999999998 2.00000000000001
endloop
endfacet
facet normal -1.12137963436802e-033 2.49273588240298e-032 1.0
outer loop
vertex -1.26794919243112 -0.999999999999998 2.00000000000001
vertex -1.83697019872103e-015 -10.0 2.0
vertex -1.06814834742186 -0.51763809020504 2.00000000000001
endloop
endfacet
facet normal -1.12137963436802e-033 2.49273588240298e-032 1.0
outer loop
vertex -1.06814834742186 -0.51763809020504 2.00000000000001
vertex -1.83697019872103e-015 -10.0 2.0
vertex -1.0 1.6400143716777e-015 2.00000000000001
endloop
endfacet
facet normal -0.923879532511287 0.38268343236509 0.0
outer loop
vertex -8.66025403784439 5.0 2.0
vertex -9.65925826289068 2.58819045102521 0.0
vertex -9.65925826289068 2.58819045102521 2.0
endloop
endfacet
facet normal -0.923879532511287 0.38268343236509 0.0
outer loop
vertex -9.65925826289068 2.58819045102521 0.0
vertex -8.66025403784439 5.0 2.0
vertex -8.66025403784439 5.0 0.0
endloop
endfacet
facet normal -0.793353340291235 0.608761429008721 0.0
outer loop
vertex -7.07106781186547 7.07106781186548 2.0
vertex -8.66025403784439 5.0 0.0
vertex -8.66025403784439 5.0 2.0
endloop
endfacet
facet normal -0.793353340291235 0.608761429008721 0.0
outer loop
vertex -8.66025403784439 5.0 0.0
vertex -7.07106781186547 7.07106781186548 2.0
vertex -7.07106781186547 7.07106781186548 0.0
endloop
endfacet
facet normal -0.60876142900872 0.793353340291235 0.0
outer loop
vertex -7.07106781186547 7.07106781186548 2.0
vertex -5.0 8.66025403784439 0.0
vertex -7.07106781186547 7.07106781186548 0.0
endloop
endfacet
facet normal -0.60876142900872 0.793353340291235 0.0
outer loop
vertex -5.0 8.66025403784439 0.0
vertex -7.07106781186547 7.07106781186548 2.0
vertex -5.0 8.66025403784439 2.0
endloop
endfacet
facet normal -0.382683432365089 0.923879532511287 0.0
outer loop
vertex -5.0 8.66025403784439 2.0
vertex -2.58819045102521 9.65925826289068 0.0
vertex -5.0 8.66025403784439 0.0
endloop
endfacet
facet normal -0.382683432365089 0.923879532511287 0.0
outer loop
vertex -2.58819045102521 9.65925826289068 0.0
vertex -5.0 8.66025403784439 2.0
vertex -2.58819045102521 9.65925826289068 2.0
endloop
endfacet
facet normal -0.130526192220052 0.99144486137381 0.0
outer loop
vertex -2.58819045102521 9.65925826289068 2.0
vertex 6.12323399573677e-016 10.0 0.0
vertex -2.58819045102521 9.65925826289068 0.0
endloop
endfacet
facet normal -0.130526192220052 0.99144486137381 0.0
outer loop
vertex 6.12323399573677e-016 10.0 0.0
vertex -2.58819045102521 9.65925826289068 2.0
vertex 6.12323399573677e-016 10.0 2.0
endloop
endfacet
facet normal 0.130526192220052 0.99144486137381 0.0
outer loop
vertex 6.12323399573677e-016 10.0 2.0
vertex 2.58819045102521 9.65925826289068 0.0
vertex 6.12323399573677e-016 10.0 0.0
endloop
endfacet
facet normal 0.130526192220052 0.99144486137381 0.0
outer loop
vertex 2.58819045102521 9.65925826289068 0.0
vertex 6.12323399573677e-016 10.0 2.0
vertex 2.58819045102521 9.65925826289068 2.0
endloop
endfacet
facet normal 0.38268343236509 0.923879532511287 0.0
outer loop
vertex 2.58819045102521 9.65925826289068 2.0
vertex 5.0 8.66025403784439 0.0
vertex 2.58819045102521 9.65925826289068 0.0
endloop
endfacet
facet normal 0.38268343236509 0.923879532511287 0.0
outer loop
vertex 5.0 8.66025403784439 0.0
vertex 2.58819045102521 9.65925826289068 2.0
vertex 5.0 8.66025403784439 2.0
endloop
endfacet
facet normal 0.608761429008721 0.793353340291235 0.0
outer loop
vertex 5.0 8.66025403784439 2.0
vertex 7.07106781186548 7.07106781186547 0.0
vertex 5.0 8.66025403784439 0.0
endloop
endfacet
facet normal 0.608761429008721 0.793353340291235 0.0
outer loop
vertex 7.07106781186548 7.07106781186547 0.0
vertex 5.0 8.66025403784439 2.0
vertex 7.07106781186548 7.07106781186547 2.0
endloop
endfacet
facet normal 0.793353340291235 0.608761429008721 0.0
outer loop
vertex 7.07106781186548 7.07106781186547 0.0
vertex 8.66025403784439 5.0 2.0
vertex 8.66025403784439 5.0 0.0
endloop
endfacet
facet normal 0.793353340291235 0.608761429008721 0.0
outer loop
vertex 8.66025403784439 5.0 2.0
vertex 7.07106781186548 7.07106781186547 0.0
vertex 7.07106781186548 7.07106781186547 2.0
endloop
endfacet
facet normal 0.923879532511287 0.382683432365089 0.0
outer loop
vertex 8.66025403784439 5.0 0.0
vertex 9.65925826289068 2.58819045102521 2.0
vertex 9.65925826289068 2.58819045102521 0.0
endloop
endfacet
facet normal 0.923879532511287 0.382683432365089 0.0
outer loop
vertex 9.65925826289068 2.58819045102521 2.0
vertex 8.66025403784439 5.0 0.0
vertex 8.66025403784439 5.0 2.0
endloop
endfacet
facet normal 0.99144486137381 0.130526192220052 0.0
outer loop
vertex 9.65925826289068 2.58819045102521 0.0
vertex 10.0 0.0 2.0
vertex 10.0 0.0 0.0
endloop
endfacet
facet normal 0.99144486137381 0.130526192220052 0.0
outer loop
vertex 10.0 0.0 2.0
vertex 9.65925826289068 2.58819045102521 0.0
vertex 9.65925826289068 2.58819045102521 2.0
endloop
endfacet
facet normal 0.99144486137381 -0.130526192220052 0.0
outer loop
vertex 10.0 0.0 0.0
vertex 9.65925826289068 -2.58819045102522 2.0
vertex 9.65925826289068 -2.58819045102522 0.0
endloop
endfacet
facet normal 0.99144486137381 -0.130526192220052 0.0
outer loop
vertex 9.65925826289068 -2.58819045102522 2.0
vertex 10.0 0.0 0.0
vertex 10.0 0.0 2.0
endloop
endfacet
facet normal 0.923879532511286 -0.382683432365091 0.0
outer loop
vertex 9.65925826289068 -2.58819045102522 0.0
vertex 8.66025403784438 -5.0 2.0
vertex 8.66025403784438 -5.0 0.0
endloop
endfacet
facet normal 0.923879532511286 -0.382683432365091 0.0
outer loop
vertex 8.66025403784438 -5.0 2.0
vertex 9.65925826289068 -2.58819045102522 0.0
vertex 9.65925826289068 -2.58819045102522 2.0
endloop
endfacet
facet normal 0.793353340291235 -0.608761429008721 0.0
outer loop
vertex 8.66025403784438 -5.0 0.0
vertex 7.07106781186547 -7.07106781186548 2.0
vertex 7.07106781186547 -7.07106781186548 0.0
endloop
endfacet
facet normal 0.793353340291235 -0.608761429008721 0.0
outer loop
vertex 7.07106781186547 -7.07106781186548 2.0
vertex 8.66025403784438 -5.0 0.0
vertex 8.66025403784438 -5.0 2.0
endloop
endfacet
facet normal 0.60876142900872 -0.793353340291236 0.0
outer loop
vertex 7.07106781186547 -7.07106781186548 2.0
vertex 4.99999999999999 -8.66025403784439 0.0
vertex 7.07106781186547 -7.07106781186548 0.0
endloop
endfacet
facet normal 0.60876142900872 -0.793353340291236 0.0
outer loop
vertex 4.99999999999999 -8.66025403784439 0.0
vertex 7.07106781186547 -7.07106781186548 2.0
vertex 4.99999999999999 -8.66025403784439 2.0
endloop
endfacet
facet normal 0.382683432365089 -0.923879532511287 0.0
outer loop
vertex 4.99999999999999 -8.66025403784439 2.0
vertex 2.5881904510252 -9.65925826289068 0.0
vertex 4.99999999999999 -8.66025403784439 0.0
endloop
endfacet
facet normal 0.382683432365089 -0.923879532511287 0.0
outer loop
vertex 2.5881904510252 -9.65925826289068 0.0
vertex 4.99999999999999 -8.66025403784439 2.0
vertex 2.5881904510252 -9.65925826289068 2.0
endloop
endfacet
facet normal 0.130526192220051 -0.99144486137381 0.0
outer loop
vertex 2.5881904510252 -9.65925826289068 2.0
vertex -1.83697019872103e-015 -10.0 0.0
vertex 2.5881904510252 -9.65925826289068 0.0
endloop
endfacet
facet normal 0.130526192220051 -0.99144486137381 0.0
outer loop
vertex -1.83697019872103e-015 -10.0 0.0
vertex 2.5881904510252 -9.65925826289068 2.0
vertex -1.83697019872103e-015 -10.0 2.0
endloop
endfacet
facet normal -0.130526192220052 -0.99144486137381 0.0
outer loop
vertex -1.83697019872103e-015 -10.0 2.0
vertex -2.58819045102522 -9.65925826289068 0.0
vertex -1.83697019872103e-015 -10.0 0.0
endloop
endfacet
facet normal -0.130526192220052 -0.99144486137381 0.0
outer loop
vertex -2.58819045102522 -9.65925826289068 0.0
vertex -1.83697019872103e-015 -10.0 2.0
vertex -2.58819045102522 -9.65925826289068 2.0
endloop
endfacet
facet normal -0.382683432365091 -0.923879532511286 0.0
outer loop
vertex -2.58819045102522 -9.65925826289068 2.0
vertex -5.0 -8.66025403784438 0.0
vertex -2.58819045102522 -9.65925826289068 0.0
endloop
endfacet
facet normal -0.382683432365091 -0.923879532511286 0.0
outer loop
vertex -5.0 -8.66025403784438 0.0
vertex -2.58819045102522 -9.65925826289068 2.0
vertex -5.0 -8.66025403784438 2.0
endloop
endfacet
facet normal -0.608761429008721 -0.793353340291235 0.0
outer loop
vertex -5.0 -8.66025403784438 2.0
vertex -7.07106781186548 -7.07106781186547 0.0
vertex -5.0 -8.66025403784438 0.0
endloop
endfacet
facet normal -0.608761429008721 -0.793353340291235 0.0
outer loop
vertex -7.07106781186548 -7.07106781186547 0.0
vertex -5.0 -8.66025403784438 2.0
vertex -7.07106781186548 -7.07106781186547 2.0
endloop
endfacet
facet normal -0.793353340291235 -0.60876142900872 0.0
outer loop
vertex -8.66025403784439 -5.0 2.0
vertex -7.07106781186548 -7.07106781186547 0.0
vertex -7.07106781186548 -7.07106781186547 2.0
endloop
endfacet
facet normal -0.793353340291235 -0.60876142900872 0.0
outer loop
vertex -7.07106781186548 -7.07106781186547 0.0
vertex -8.66025403784439 -5.0 2.0
vertex -8.66025403784439 -5.0 0.0
endloop
endfacet
facet normal -0.923879532511287 -0.382683432365089 0.0
outer loop
vertex -9.65925826289068 -2.5881904510252 2.0
vertex -8.66025403784439 -5.0 0.0
vertex -8.66025403784439 -5.0 2.0
endloop
endfacet
facet normal -0.923879532511287 -0.382683432365089 0.0
outer loop
vertex -8.66025403784439 -5.0 0.0
vertex -9.65925826289068 -2.5881904510252 2.0
vertex -9.65925826289068 -2.5881904510252 0.0
endloop
endfacet
facet normal -0.99144486137381 -0.130526192220051 0.0
outer loop
vertex -10.0 1.22464679914735e-015 2.0
vertex -9.65925826289068 -2.5881904510252 0.0
vertex -9.65925826289068 -2.5881904510252 2.0
endloop
endfacet
facet normal -0.99144486137381 -0.130526192220051 0.0
outer loop
vertex -9.65925826289068 -2.5881904510252 0.0
vertex -10.0 1.22464679914735e-015 2.0
vertex -10.0 1.22464679914735e-015 0.0
endloop
endfacet
facet normal -0.99144486137381 0.130526192220052 0.0
outer loop
vertex -9.65925826289068 2.58819045102521 2.0
vertex -10.0 1.22464679914735e-015 0.0
vertex -10.0 1.22464679914735e-015 2.0
endloop
endfacet
facet normal -0.99144486137381 0.130526192220052 0.0
outer loop
vertex -10.0 1.22464679914735e-015 0.0
vertex -9.65925826289068 2.58819045102521 2.0
vertex -9.65925826289068 2.58819045102521 0.0
endloop
endfacet
facet normal -2.88204121644046e-017 -1.0 -5.20242930052332e-034
outer loop
vertex 6.48621902190378 -2.0 24.8949888468854
vertex -6.5 -2.0 21.143074902772
vertex 6.48621902190378 -2.0 21.1050111531146
endloop
endfacet
facet normal -2.88204121644046e-017 -1.0 -5.20242930052332e-034
outer loop
vertex -6.5 -2.0 21.143074902772
vertex 6.48621902190378 -2.0 24.8949888468854
vertex -6.50000000000001 -2.0 24.856925097228
endloop
endfacet
facet normal -2.88204121644046e-017 -1.0 -5.20242930052332e-034
outer loop
vertex 10.0 -2.0 23.0
vertex 3.0 -2.0 17.0
vertex 5.0 -2.0 17.0
endloop
endfacet
facet normal -2.88204121644046e-017 -1.0 -5.20242930052332e-034
outer loop
vertex 3.0 -2.0 17.0
vertex 10.0 -2.0 23.0
vertex 6.48621902190378 -2.0 21.1050111531146
endloop
endfacet
facet normal -2.88204121644046e-017 -1.0 -5.20242930052332e-034
outer loop
vertex 3.0 -2.0 17.0
vertex 6.48621902190378 -2.0 21.1050111531146
vertex -3.0 -2.0 17.0
endloop
endfacet
facet normal -2.88204121644046e-017 -1.0 -5.20242930052332e-034
outer loop
vertex -3.0 -2.0 17.0
vertex 6.48621902190378 -2.0 21.1050111531146
vertex -5.0 -2.0 17.0
endloop
endfacet
facet normal -2.88204121644046e-017 -1.0 -5.20242930052332e-034
outer loop
vertex 6.48621902190378 -2.0 21.1050111531146
vertex 10.0 -2.0 23.0
vertex 8.06537639430828 -2.0 23.0
endloop
endfacet
facet normal -2.88204121644046e-017 -1.0 -5.20242930052332e-034
outer loop
vertex 8.06537639430828 -2.0 23.0
vertex 10.0 -2.0 23.0
vertex 5.0 -2.0 29.0
endloop
endfacet
facet normal -2.88204121644046e-017 -1.0 -5.20242930052332e-034
outer loop
vertex 8.06537639430828 -2.0 23.0
vertex 5.0 -2.0 29.0
vertex 6.48621902190378 -2.0 24.8949888468854
endloop
endfacet
facet normal -2.88204121644046e-017 -1.0 -5.20242930052332e-034
outer loop
vertex -5.0 -2.0 17.0
vertex -6.5 -2.0 21.143074902772
vertex -10.0 -2.0 23.0
endloop
endfacet
facet normal -2.88204121644046e-017 -1.0 -5.20242930052332e-034
outer loop
vertex -6.5 -2.0 21.143074902772
vertex -5.0 -2.0 17.0
vertex 6.48621902190378 -2.0 21.1050111531146
endloop
endfacet
facet normal -2.88204121644046e-017 -1.0 -5.20242930052332e-034
outer loop
vertex -10.0 -2.0 23.0
vertex -6.5 -2.0 21.143074902772
vertex -8.04743758102334 -2.0 23.0
endloop
endfacet
facet normal -2.88204121644046e-017 -1.0 -5.20242930052332e-034
outer loop
vertex -10.0 -2.0 23.0
vertex -8.04743758102334 -2.0 23.0
vertex -6.50000000000001 -2.0 24.856925097228
endloop
endfacet
facet normal -2.88204121644046e-017 -1.0 -5.20242930052332e-034
outer loop
vertex -10.0 -2.0 23.0
vertex -6.50000000000001 -2.0 24.856925097228
vertex -5.0 -2.0 29.0
endloop
endfacet
facet normal -2.88204121644046e-017 -1.0 -5.20242930052332e-034
outer loop
vertex -5.0 -2.0 29.0
vertex -6.50000000000001 -2.0 24.856925097228
vertex 6.48621902190378 -2.0 24.8949888468854
endloop
endfacet
facet normal -2.88204121644046e-017 -1.0 -5.20242930052332e-034
outer loop
vertex -5.0 -2.0 29.0
vertex 6.48621902190378 -2.0 24.8949888468854
vertex 5.0 -2.0 29.0
endloop
endfacet
facet normal -2.88204121644046e-017 -1.0 -5.20242930052332e-034
outer loop
vertex -5.0 -2.0 29.0
vertex 5.0 -2.0 29.0
vertex 0.0 -2.0 29.0
endloop
endfacet
facet normal 0.0 0.0 1.0
outer loop
vertex 0.0 -2.0 29.0
vertex -5.0 2.0 29.0
vertex -5.0 -2.0 29.0
endloop
endfacet
facet normal 0.0 0.0 1.0
outer loop
vertex -5.0 2.0 29.0
vertex 0.0 -2.0 29.0
vertex 3.20917638707582e-016 2.0 29.0
endloop
endfacet
facet normal -8.02294096768957e-017 -1.0 5.08783877438982e-018
outer loop
vertex 1.29409522551261 -2.0 29.1703708685547
vertex -1.2940952255126 -2.0 29.1703708685547
vertex 0.0 -2.0 29.0
endloop
endfacet
facet normal -8.02294096768957e-017 -1.0 5.08783877438982e-018
outer loop
vertex -1.2940952255126 -2.0 29.1703708685547
vertex 1.29409522551261 -2.0 29.1703708685547
vertex 2.5 -2.0 29.6698729810778
endloop
endfacet
facet normal -8.02294096768957e-017 -1.0 5.08783877438982e-018
outer loop
vertex -1.2940952255126 -2.0 29.1703708685547
vertex 2.5 -2.0 29.6698729810778
vertex -2.5 -2.0 29.6698729810778
endloop
endfacet
facet normal -8.02294096768957e-017 -1.0 5.08783877438982e-018
outer loop
vertex -2.5 -2.0 29.6698729810778
vertex 2.5 -2.0 29.6698729810778
vertex 3.53553390593274 -2.0 30.4644660940673
endloop
endfacet
facet normal -8.02294096768957e-017 -1.0 5.08783877438982e-018
outer loop
vertex -2.5 -2.0 29.6698729810778
vertex 3.53553390593274 -2.0 30.4644660940673
vertex -3.53553390593274 -2.0 30.4644660940673
endloop
endfacet
facet normal -8.02294096768957e-017 -1.0 5.08783877438982e-018
outer loop
vertex -3.53553390593274 -2.0 30.4644660940673
vertex 3.53553390593274 -2.0 30.4644660940673
vertex -4.3301270189222 -2.0 31.5
endloop
endfacet
facet normal -8.02294096768957e-017 -1.0 5.08783877438982e-018
outer loop
vertex -4.3301270189222 -2.0 31.5
vertex 3.53553390593274 -2.0 30.4644660940673
vertex 4.3301270189222 -2.0 31.5
endloop
endfacet
facet normal -8.02294096768957e-017 -1.0 5.08783877438982e-018
outer loop
vertex -4.3301270189222 -2.0 31.5
vertex 4.3301270189222 -2.0 31.5
vertex -4.82962913144534 -2.0 32.7059047744874
endloop
endfacet
facet normal -8.02294096768957e-017 -1.0 5.08783877438982e-018
outer loop
vertex -4.82962913144534 -2.0 32.7059047744874
vertex 4.3301270189222 -2.0 31.5
vertex 4.82962913144534 -2.0 32.7059047744874
endloop
endfacet
facet normal -8.02294096768957e-017 -1.0 5.08783877438982e-018
outer loop
vertex -4.82962913144534 -2.0 32.7059047744874
vertex 4.82962913144534 -2.0 32.7059047744874
vertex 5.0 -2.0 34.0
endloop
endfacet
facet normal -8.02294096768957e-017 -1.0 5.08783877438982e-018
outer loop
vertex -4.82962913144534 -2.0 32.7059047744874
vertex 5.0 -2.0 34.0
vertex -5.0 -2.0 34.0
endloop
endfacet
facet normal -8.02294096768957e-017 -1.0 5.08783877438982e-018
outer loop
vertex -5.0 -2.0 34.0
vertex 5.0 -2.0 34.0
vertex 4.82962913144534 -2.0 35.2940952255126
endloop
endfacet
facet normal -8.02294096768957e-017 -1.0 5.08783877438982e-018
outer loop
vertex -5.0 -2.0 34.0
vertex 4.82962913144534 -2.0 35.2940952255126
vertex -4.82962913144534 -2.0 35.2940952255126
endloop
endfacet
facet normal -8.02294096768957e-017 -1.0 5.08783877438982e-018
outer loop
vertex -4.82962913144534 -2.0 35.2940952255126
vertex 4.82962913144534 -2.0 35.2940952255126
vertex -4.3301270189222 -2.0 36.5
endloop
endfacet
facet normal -8.02294096768957e-017 -1.0 5.08783877438982e-018
outer loop
vertex -4.3301270189222 -2.0 36.5
vertex 4.82962913144534 -2.0 35.2940952255126
vertex 4.33012701892219 -2.0 36.5
endloop
endfacet
facet normal -8.02294096768957e-017 -1.0 5.08783877438982e-018
outer loop
vertex -4.3301270189222 -2.0 36.5
vertex 4.33012701892219 -2.0 36.5
vertex 3.53553390593274 -2.0 37.5355339059327
endloop
endfacet
facet normal -8.02294096768957e-017 -1.0 5.08783877438982e-018
outer loop
vertex -4.3301270189222 -2.0 36.5
vertex 3.53553390593274 -2.0 37.5355339059327
vertex -3.53553390593274 -2.0 37.5355339059327
endloop
endfacet
facet normal -8.02294096768957e-017 -1.0 5.08783877438982e-018
outer loop
vertex -3.53553390593274 -2.0 37.5355339059327
vertex 3.53553390593274 -2.0 37.5355339059327
vertex 2.5 -2.0 38.3301270189222
endloop
endfacet
facet normal -8.02294096768957e-017 -1.0 5.08783877438982e-018
outer loop
vertex -3.53553390593274 -2.0 37.5355339059327
vertex 2.5 -2.0 38.3301270189222
vertex -2.5 -2.0 38.3301270189222
endloop
endfacet
facet normal -8.02294096768957e-017 -1.0 5.08783877438982e-018
outer loop
vertex -2.5 -2.0 38.3301270189222
vertex 2.5 -2.0 38.3301270189222
vertex 1.2940952255126 -2.0 38.8296291314454
endloop
endfacet
facet normal -8.02294096768957e-017 -1.0 5.08783877438982e-018
outer loop
vertex -2.5 -2.0 38.3301270189222
vertex 1.2940952255126 -2.0 38.8296291314454
vertex -1.29409522551261 -2.0 38.8296291314454
endloop
endfacet
facet normal -8.02294096768957e-017 -1.0 5.08783877438982e-018
outer loop
vertex -1.29409522551261 -2.0 38.8296291314454
vertex 1.2940952255126 -2.0 38.8296291314454
vertex -6.12323399573677e-016 -2.0 39.0
endloop
endfacet
facet normal 7.72919445909083e-017 1.0 -1.01756775487797e-017
outer loop
vertex -1.2940952255126 2.0 29.1703708685547
vertex 1.29409522551261 2.0 29.1703708685547
vertex 3.20917638707582e-016 2.0 29.0
endloop
endfacet
facet normal 7.72919445909083e-017 1.0 -1.01756775487797e-017
outer loop
vertex 1.29409522551261 2.0 29.1703708685547
vertex -1.2940952255126 2.0 29.1703708685547
vertex -2.5 2.0 29.6698729810778
endloop
endfacet
facet normal 7.72919445909083e-017 1.0 -1.01756775487797e-017
outer loop
vertex 1.29409522551261 2.0 29.1703708685547
vertex -2.5 2.0 29.6698729810778
vertex 2.5 2.0 29.6698729810778
endloop
endfacet
facet normal 7.72919445909083e-017 1.0 -1.01756775487797e-017
outer loop
vertex 2.5 2.0 29.6698729810778
vertex -2.5 2.0 29.6698729810778
vertex -3.53553390593274 2.0 30.4644660940673
endloop
endfacet
facet normal 7.72919445909083e-017 1.0 -1.01756775487797e-017
outer loop
vertex 2.5 2.0 29.6698729810778
vertex -3.53553390593274 2.0 30.4644660940673
vertex 3.53553390593274 2.0 30.4644660940673
endloop
endfacet
facet normal 7.72919445909083e-017 1.0 -1.01756775487797e-017
outer loop
vertex 3.53553390593274 2.0 30.4644660940673
vertex -3.53553390593274 2.0 30.4644660940673
vertex -4.3301270189222 2.0 31.5
endloop
endfacet
facet normal 7.72919445909083e-017 1.0 -1.01756775487797e-017
outer loop
vertex 3.53553390593274 2.0 30.4644660940673
vertex -4.3301270189222 2.0 31.5
vertex 4.3301270189222 2.0 31.5
endloop
endfacet
facet normal 7.72919445909083e-017 1.0 -1.01756775487797e-017
outer loop
vertex 4.3301270189222 2.0 31.5
vertex -4.3301270189222 2.0 31.5
vertex -4.82962913144534 2.0 32.7059047744874
endloop
endfacet
facet normal 7.72919445909083e-017 1.0 -1.01756775487797e-017
outer loop
vertex 4.3301270189222 2.0 31.5
vertex -4.82962913144534 2.0 32.7059047744874
vertex 4.82962913144534 2.0 32.7059047744874
endloop
endfacet
facet normal 7.72919445909083e-017 1.0 -1.01756775487797e-017
outer loop
vertex 4.82962913144534 2.0 32.7059047744874
vertex -4.82962913144534 2.0 32.7059047744874
vertex -5.0 2.0 34.0
endloop
endfacet
facet normal 7.72919445909083e-017 1.0 -1.01756775487797e-017
outer loop
vertex 4.82962913144534 2.0 32.7059047744874
vertex -5.0 2.0 34.0
vertex 5.0 2.0 34.0
endloop
endfacet
facet normal 7.72919445909083e-017 1.0 -1.01756775487797e-017
outer loop
vertex 5.0 2.0 34.0
vertex -5.0 2.0 34.0
vertex -4.82962913144534 2.0 35.2940952255126
endloop
endfacet
facet normal 7.72919445909083e-017 1.0 -1.01756775487797e-017
outer loop
vertex 5.0 2.0 34.0
vertex -4.82962913144534 2.0 35.2940952255126
vertex 4.82962913144534 2.0 35.2940952255126
endloop
endfacet
facet normal 7.72919445909083e-017 1.0 -1.01756775487797e-017
outer loop
vertex 4.82962913144534 2.0 35.2940952255126
vertex -4.82962913144534 2.0 35.2940952255126
vertex -4.3301270189222 2.0 36.5
endloop
endfacet
facet normal 7.72919445909083e-017 1.0 -1.01756775487797e-017
outer loop
vertex 4.82962913144534 2.0 35.2940952255126
vertex -4.3301270189222 2.0 36.5
vertex 4.33012701892219 2.0 36.5
endloop
endfacet
facet normal 7.72919445909083e-017 1.0 -1.01756775487797e-017
outer loop
vertex 4.33012701892219 2.0 36.5
vertex -4.3301270189222 2.0 36.5
vertex -3.53553390593274 2.0 37.5355339059327
endloop
endfacet
facet normal 7.72919445909083e-017 1.0 -1.01756775487797e-017
outer loop
vertex 4.33012701892219 2.0 36.5
vertex -3.53553390593274 2.0 37.5355339059327
vertex 3.53553390593274 2.0 37.5355339059327
endloop
endfacet
facet normal 7.72919445909083e-017 1.0 -1.01756775487797e-017
outer loop
vertex 3.53553390593274 2.0 37.5355339059327
vertex -3.53553390593274 2.0 37.5355339059327
vertex -2.5 2.0 38.3301270189222
endloop
endfacet
facet normal 7.72919445909083e-017 1.0 -1.01756775487797e-017
outer loop
vertex 3.53553390593274 2.0 37.5355339059327
vertex -2.5 2.0 38.3301270189222
vertex 2.5 2.0 38.3301270189222
endloop
endfacet
facet normal 7.72919445909083e-017 1.0 -1.01756775487797e-017
outer loop
vertex 2.5 2.0 38.3301270189222
vertex -2.5 2.0 38.3301270189222
vertex -1.29409522551261 2.0 38.8296291314454
endloop
endfacet
facet normal 7.72919445909083e-017 1.0 -1.01756775487797e-017
outer loop
vertex 2.5 2.0 38.3301270189222
vertex -1.29409522551261 2.0 38.8296291314454
vertex 1.2940952255126 2.0 38.8296291314454
endloop
endfacet
facet normal 7.72919445909083e-017 1.0 -1.01756775487797e-017
outer loop
vertex 1.2940952255126 2.0 38.8296291314454
vertex -1.29409522551261 2.0 38.8296291314454
vertex -2.91405760866095e-016 2.0 39.0
endloop
endfacet
facet normal -0.130526192220052 6.84757249053283e-018 -0.99144486137381
outer loop
vertex 3.20917638707582e-016 2.0 29.0
vertex -1.2940952255126 -2.0 29.1703708685547
vertex -1.2940952255126 2.0 29.1703708685547
endloop
endfacet
facet normal -0.130526192220052 6.84757249053283e-018 -0.99144486137381
outer loop
vertex -1.2940952255126 -2.0 29.1703708685547
vertex 3.20917638707582e-016 2.0 29.0
vertex 0.0 -2.0 29.0
endloop
endfacet
facet normal -0.382683432365089 2.60019157634033e-017 -0.923879532511287
outer loop
vertex -1.2940952255126 2.0 29.1703708685547
vertex -2.5 -2.0 29.6698729810778
vertex -2.5 2.0 29.6698729810778
endloop
endfacet
facet normal -0.382683432365089 2.60019157634033e-017 -0.923879532511287
outer loop
vertex -2.5 -2.0 29.6698729810778
vertex -1.2940952255126 2.0 29.1703708685547
vertex -1.2940952255126 -2.0 29.1703708685547
endloop
endfacet
facet normal -0.60876142900872 4.48041161969076e-017 -0.793353340291235
outer loop
vertex -2.5 2.0 29.6698729810778
vertex -3.53553390593274 -2.0 30.4644660940673
vertex -3.53553390593274 2.0 30.4644660940673
endloop
endfacet
facet normal -0.60876142900872 4.48041161969076e-017 -0.793353340291235
outer loop
vertex -3.53553390593274 -2.0 30.4644660940673
vertex -2.5 2.0 29.6698729810778
vertex -2.5 -2.0 29.6698729810778
endloop
endfacet
facet normal -0.793353340291236 6.05529901538956e-017 -0.60876142900872
outer loop
vertex -4.3301270189222 2.0 31.5
vertex -3.53553390593274 -2.0 30.4644660940673
vertex -4.3301270189222 -2.0 31.5
endloop
endfacet
facet normal -0.793353340291236 6.05529901538956e-017 -0.60876142900872
outer loop
vertex -3.53553390593274 -2.0 30.4644660940673
vertex -4.3301270189222 2.0 31.5
vertex -3.53553390593274 2.0 30.4644660940673
endloop
endfacet
facet normal -0.923879532511287 7.21752779004432e-017 -0.382683432365089
outer loop
vertex -4.82962913144534 2.0 32.7059047744874
vertex -4.3301270189222 -2.0 31.5
vertex -4.82962913144534 -2.0 32.7059047744874
endloop
endfacet
facet normal -0.923879532511287 7.21752779004432e-017 -0.382683432365089
outer loop
vertex -4.3301270189222 -2.0 31.5
vertex -4.82962913144534 2.0 32.7059047744874
vertex -4.3301270189222 2.0 31.5
endloop
endfacet
facet normal -0.99144486137381 7.88789397333618e-017 -0.130526192220052
outer loop
vertex -5.0 2.0 34.0
vertex -4.82962913144534 -2.0 32.7059047744874
vertex -5.0 -2.0 34.0
endloop
endfacet
facet normal -0.99144486137381 7.88789397333618e-017 -0.130526192220052
outer loop
vertex -4.82962913144534 -2.0 32.7059047744874
vertex -5.0 2.0 34.0
vertex -4.82962913144534 2.0 32.7059047744874
endloop
endfacet
facet normal -0.99144486137381 8.02071321770631e-017 0.130526192220052
outer loop
vertex -4.82962913144534 2.0 35.2940952255126
vertex -5.0 -2.0 34.0
vertex -4.82962913144534 -2.0 35.2940952255126
endloop
endfacet
facet normal -0.99144486137381 8.02071321770631e-017 0.130526192220052
outer loop
vertex -5.0 -2.0 34.0
vertex -4.82962913144534 2.0 35.2940952255126
vertex -5.0 2.0 34.0
endloop
endfacet
facet normal -0.923879532511287 7.60693411114506e-017 0.382683432365089
outer loop
vertex -4.3301270189222 2.0 36.5
vertex -4.82962913144534 -2.0 35.2940952255126
vertex -4.3301270189222 -2.0 36.5
endloop
endfacet
facet normal -0.923879532511287 7.60693411114506e-017 0.382683432365089
outer loop
vertex -4.82962913144534 -2.0 35.2940952255126
vertex -4.3301270189222 2.0 36.5
vertex -4.82962913144534 2.0 35.2940952255126
endloop
endfacet
facet normal -0.793353340291236 6.67475501596227e-017 0.60876142900872
outer loop
vertex -3.53553390593274 2.0 37.5355339059327
vertex -4.3301270189222 -2.0 36.5
vertex -3.53553390593274 -2.0 37.5355339059327
endloop
endfacet
facet normal -0.793353340291236 6.67475501596227e-017 0.60876142900872
outer loop
vertex -4.3301270189222 -2.0 36.5
vertex -3.53553390593274 2.0 37.5355339059327
vertex -4.3301270189222 2.0 36.5
endloop
endfacet
facet normal -0.608761429008721 5.28770239699585e-017 0.793353340291235
outer loop
vertex -2.5 -2.0 38.3301270189222
vertex -3.53553390593274 2.0 37.5355339059327
vertex -3.53553390593274 -2.0 37.5355339059327
endloop
endfacet
facet normal -0.608761429008721 5.28770239699585e-017 0.793353340291235
outer loop
vertex -3.53553390593274 2.0 37.5355339059327
vertex -2.5 -2.0 38.3301270189222
vertex -2.5 2.0 38.3301270189222
endloop
endfacet
facet normal -0.382683432365089 3.54030159801554e-017 0.923879532511287
outer loop
vertex -1.29409522551261 -2.0 38.8296291314454
vertex -2.5 2.0 38.3301270189222
vertex -2.5 -2.0 38.3301270189222
endloop
endfacet
facet normal -0.382683432365089 3.54030159801554e-017 0.923879532511287
outer loop
vertex -2.5 2.0 38.3301270189222
vertex -1.29409522551261 -2.0 38.8296291314454
vertex -1.29409522551261 2.0 38.8296291314454
endloop
endfacet
facet normal -0.130526192220052 1.5516350957555e-017 0.99144486137381
outer loop
vertex -6.12323399573677e-016 -2.0 39.0
vertex -1.29409522551261 2.0 38.8296291314454
vertex -1.29409522551261 -2.0 38.8296291314454
endloop
endfacet
facet normal -0.130526192220052 1.5516350957555e-017 0.99144486137381
outer loop
vertex -1.29409522551261 2.0 38.8296291314454
vertex -6.12323399573677e-016 -2.0 39.0
vertex -2.91405760866095e-016 2.0 39.0
endloop
endfacet
facet normal 0.130526192220052 -5.42772774082055e-018 0.99144486137381
outer loop
vertex 1.2940952255126 -2.0 38.8296291314454
vertex -2.91405760866095e-016 2.0 39.0
vertex -6.12323399573677e-016 -2.0 39.0
endloop
endfacet
facet normal 0.130526192220052 -5.42772774082055e-018 0.99144486137381
outer loop
vertex -2.91405760866095e-016 2.0 39.0
vertex 1.2940952255126 -2.0 38.8296291314454
vertex 1.2940952255126 2.0 38.8296291314454
endloop
endfacet
facet normal 0.382683432365089 -2.60019157634033e-017 0.923879532511287
outer loop
vertex 2.5 -2.0 38.3301270189222
vertex 1.2940952255126 2.0 38.8296291314454
vertex 1.2940952255126 -2.0 38.8296291314454
endloop
endfacet
facet normal 0.382683432365089 -2.60019157634033e-017 0.923879532511287
outer loop
vertex 1.2940952255126 2.0 38.8296291314454
vertex 2.5 -2.0 38.3301270189222
vertex 2.5 2.0 38.3301270189222
endloop
endfacet
facet normal 0.60876142900872 -4.48041161969076e-017 0.793353340291235
outer loop
vertex 3.53553390593274 -2.0 37.5355339059327
vertex 2.5 2.0 38.3301270189222
vertex 2.5 -2.0 38.3301270189222
endloop
endfacet
facet normal 0.60876142900872 -4.48041161969076e-017 0.793353340291235
outer loop
vertex 2.5 2.0 38.3301270189222
vertex 3.53553390593274 -2.0 37.5355339059327
vertex 3.53553390593274 2.0 37.5355339059327
endloop
endfacet
facet normal 0.793353340291236 -6.05529901538956e-017 0.60876142900872
outer loop
vertex 4.33012701892219 2.0 36.5
vertex 3.53553390593274 -2.0 37.5355339059327
vertex 4.33012701892219 -2.0 36.5
endloop
endfacet
facet normal 0.793353340291236 -6.05529901538956e-017 0.60876142900872
outer loop
vertex 3.53553390593274 -2.0 37.5355339059327
vertex 4.33012701892219 2.0 36.5
vertex 3.53553390593274 2.0 37.5355339059327
endloop
endfacet
facet normal 0.923879532511286 -7.21752779004431e-017 0.382683432365091
outer loop
vertex 4.82962913144534 2.0 35.2940952255126
vertex 4.33012701892219 -2.0 36.5
vertex 4.82962913144534 -2.0 35.2940952255126
endloop
endfacet
facet normal 0.923879532511286 -7.21752779004431e-017 0.382683432365091
outer loop
vertex 4.33012701892219 -2.0 36.5
vertex 4.82962913144534 2.0 35.2940952255126
vertex 4.33012701892219 2.0 36.5
endloop
endfacet
facet normal 0.99144486137381 -7.88789397333618e-017 0.130526192220052
outer loop
vertex 5.0 2.0 34.0
vertex 4.82962913144534 -2.0 35.2940952255126
vertex 5.0 -2.0 34.0
endloop
endfacet
facet normal 0.99144486137381 -7.88789397333618e-017 0.130526192220052
outer loop
vertex 4.82962913144534 -2.0 35.2940952255126
vertex 5.0 2.0 34.0
vertex 4.82962913144534 2.0 35.2940952255126
endloop
endfacet
facet normal 0.99144486137381 -8.02071321770631e-017 -0.130526192220051
outer loop
vertex 4.82962913144534 2.0 32.7059047744874
vertex 5.0 -2.0 34.0
vertex 4.82962913144534 -2.0 32.7059047744874
endloop
endfacet
facet normal 0.99144486137381 -8.02071321770631e-017 -0.130526192220051
outer loop
vertex 5.0 -2.0 34.0
vertex 4.82962913144534 2.0 32.7059047744874
vertex 5.0 2.0 34.0
endloop
endfacet
facet normal 0.923879532511287 -7.60693411114506e-017 -0.38268343236509
outer loop
vertex 4.3301270189222 2.0 31.5
vertex 4.82962913144534 -2.0 32.7059047744874
vertex 4.3301270189222 -2.0 31.5
endloop
endfacet
facet normal 0.923879532511287 -7.60693411114506e-017 -0.38268343236509
outer loop
vertex 4.82962913144534 -2.0 32.7059047744874
vertex 4.3301270189222 2.0 31.5
vertex 4.82962913144534 2.0 32.7059047744874
endloop
endfacet
facet normal 0.793353340291235 -6.67475501596226e-017 -0.608761429008721
outer loop
vertex 3.53553390593274 2.0 30.4644660940673
vertex 4.3301270189222 -2.0 31.5
vertex 3.53553390593274 -2.0 30.4644660940673
endloop
endfacet
facet normal 0.793353340291235 -6.67475501596226e-017 -0.608761429008721
outer loop
vertex 4.3301270189222 -2.0 31.5
vertex 3.53553390593274 2.0 30.4644660940673
vertex 4.3301270189222 2.0 31.5
endloop
endfacet
facet normal 0.608761429008723 -5.28770239699587e-017 -0.793353340291233
outer loop
vertex 3.53553390593274 2.0 30.4644660940673
vertex 2.5 -2.0 29.6698729810778
vertex 2.5 2.0 29.6698729810778
endloop
endfacet
facet normal 0.608761429008723 -5.28770239699587e-017 -0.793353340291233
outer loop
vertex 2.5 -2.0 29.6698729810778
vertex 3.53553390593274 2.0 30.4644660940673
vertex 3.53553390593274 -2.0 30.4644660940673
endloop
endfacet
facet normal 0.38268343236509 -3.54030159801554e-017 -0.923879532511287
outer loop
vertex 2.5 2.0 29.6698729810778
vertex 1.29409522551261 -2.0 29.1703708685547
vertex 1.29409522551261 2.0 29.1703708685547
endloop
endfacet
facet normal 0.38268343236509 -3.54030159801554e-017 -0.923879532511287
outer loop
vertex 1.29409522551261 -2.0 29.1703708685547
vertex 2.5 2.0 29.6698729810778
vertex 2.5 -2.0 29.6698729810778
endloop
endfacet
facet normal 0.130526192220051 -6.84757249053281e-018 -0.99144486137381
outer loop
vertex 3.20917638707582e-016 2.0 29.0
vertex 1.29409522551261 -2.0 29.1703708685547
vertex 0.0 -2.0 29.0
endloop
endfacet
facet normal 0.130526192220051 -6.84757249053281e-018 -0.99144486137381
outer loop
vertex 1.29409522551261 -2.0 29.1703708685547
vertex 3.20917638707582e-016 2.0 29.0
vertex 1.29409522551261 2.0 29.1703708685547
endloop
endfacet
facet normal 0.0 0.0 1.0
outer loop
vertex 5.0 -2.0 29.0
vertex 3.20917638707582e-016 2.0 29.0
vertex 0.0 -2.0 29.0
endloop
endfacet
facet normal 0.0 0.0 1.0
outer loop
vertex 3.20917638707582e-016 2.0 29.0
vertex 5.0 -2.0 29.0
vertex 5.0 2.0 29.0
endloop
endfacet
facet normal 0.768221279597376 -8.95597327392134e-018 -0.64018439966448
outer loop
vertex 5.0 5.82526940722239e-016 17.0
vertex 10.0 -2.0 23.0
vertex 5.0 -2.0 17.0
endloop
endfacet
facet normal 0.768221279597376 -8.95597327392134e-018 -0.64018439966448
outer loop
vertex 10.0 -2.0 23.0
vertex 5.0 5.82526940722239e-016 17.0
vertex 10.0 2.0 23.0
endloop
endfacet
facet normal 0.768221279597376 -8.95597327392134e-018 -0.64018439966448
outer loop
vertex 10.0 2.0 23.0
vertex 5.0 5.82526940722239e-016 17.0
vertex 5.0 2.0 17.0
endloop
endfacet
facet normal 0.768221279597376 8.95597327392156e-018 0.64018439966448
outer loop
vertex 10.0 -2.0 23.0
vertex 5.0 2.0 29.0
vertex 5.0 -2.0 29.0
endloop
endfacet
facet normal 0.768221279597376 8.95597327392156e-018 0.64018439966448
outer loop
vertex 5.0 2.0 29.0
vertex 10.0 -2.0 23.0
vertex 10.0 2.0 23.0
endloop
endfacet
facet normal -0.768221279597376 -5.41589564911164e-017 0.64018439966448
outer loop
vertex 8.06537639430828 2.0 23.0
vertex 6.48621902190378 -2.0 21.1050111531146
vertex 8.06537639430828 -2.0 23.0
endloop
endfacet
facet normal -0.768221279597376 -5.41589564911164e-017 0.64018439966448
outer loop
vertex 6.48621902190378 -2.0 21.1050111531146
vertex 8.06537639430828 2.0 23.0
vertex 6.48621902190378 2.0 21.1050111531146
endloop
endfacet
facet normal 1.0 7.04991620636974e-017 1.1160882901169e-015
outer loop
vertex 6.48621902190378 -2.0 21.1050111531146
vertex 6.48621902190378 2.0 24.8949888468854
vertex 6.48621902190378 -2.0 24.8949888468854
endloop
endfacet
facet normal 1.0 7.04991620636974e-017 1.1160882901169e-015
outer loop
vertex 6.48621902190378 2.0 24.8949888468854
vertex 6.48621902190378 -2.0 21.1050111531146
vertex 6.48621902190378 2.0 21.1050111531146
endloop
endfacet
facet normal -0.768221279597376 -5.41589564911164e-017 -0.640184399664479
outer loop
vertex 6.48621902190378 2.0 24.8949888468854
vertex 8.06537639430828 -2.0 23.0
vertex 6.48621902190378 -2.0 24.8949888468854
endloop
endfacet
facet normal -0.768221279597376 -5.41589564911164e-017 -0.640184399664479
outer loop
vertex 8.06537639430828 -2.0 23.0
vertex 6.48621902190378 2.0 24.8949888468854
vertex 8.06537639430828 2.0 23.0
endloop
endfacet
facet normal 8.20273269294593e-017 1.0 1.19393742204649e-016
outer loop
vertex -10.0 2.0 23.0
vertex -3.0 2.0 17.0
vertex -5.0 2.0 17.0
endloop
endfacet
facet normal 8.20273269294593e-017 1.0 1.19393742204649e-016
outer loop
vertex -3.0 2.0 17.0
vertex -10.0 2.0 23.0
vertex -6.5 2.0 21.143074902772
endloop
endfacet
facet normal 8.20273269294593e-017 1.0 1.19393742204649e-016
outer loop
vertex -3.0 2.0 17.0
vertex -6.5 2.0 21.143074902772
vertex 3.0 2.0 17.0
endloop
endfacet
facet normal 8.20273269294593e-017 1.0 1.19393742204649e-016
outer loop
vertex 3.0 2.0 17.0
vertex -6.5 2.0 21.143074902772
vertex 5.0 2.0 17.0
endloop
endfacet
facet normal 8.20273269294593e-017 1.0 1.19393742204649e-016
outer loop
vertex 5.0 2.0 17.0
vertex -6.5 2.0 21.143074902772
vertex 6.48621902190378 2.0 21.1050111531146
endloop
endfacet
facet normal 8.20273269294593e-017 1.0 1.19393742204649e-016
outer loop
vertex -6.5 2.0 21.143074902772
vertex -10.0 2.0 23.0
vertex -8.04743758102334 2.0 23.0
endloop
endfacet
facet normal 8.20273269294593e-017 1.0 1.19393742204649e-016
outer loop
vertex -8.04743758102334 2.0 23.0
vertex -10.0 2.0 23.0
vertex -5.0 2.0 29.0
endloop
endfacet
facet normal 8.20273269294593e-017 1.0 1.19393742204649e-016
outer loop
vertex -8.04743758102334 2.0 23.0
vertex -5.0 2.0 29.0
vertex -6.50000000000001 2.0 24.856925097228
endloop
endfacet
facet normal 8.20273269294593e-017 1.0 1.19393742204649e-016
outer loop
vertex -6.50000000000001 2.0 24.856925097228
vertex -5.0 2.0 29.0
vertex 6.48621902190378 2.0 24.8949888468854
endloop
endfacet
facet normal 8.20273269294593e-017 1.0 1.19393742204649e-016
outer loop
vertex 6.48621902190378 2.0 21.1050111531146
vertex 10.0 2.0 23.0
vertex 5.0 2.0 17.0
endloop
endfacet
facet normal 8.20273269294593e-017 1.0 1.19393742204649e-016
outer loop
vertex 10.0 2.0 23.0
vertex 6.48621902190378 2.0 21.1050111531146
vertex 8.06537639430828 2.0 23.0
endloop
endfacet
facet normal 8.20273269294593e-017 1.0 1.19393742204649e-016
outer loop
vertex 10.0 2.0 23.0
vertex 8.06537639430828 2.0 23.0
vertex 6.48621902190378 2.0 24.8949888468854
endloop
endfacet
facet normal 8.20273269294593e-017 1.0 1.19393742204649e-016
outer loop
vertex 10.0 2.0 23.0
vertex 6.48621902190378 2.0 24.8949888468854
vertex 5.0 2.0 29.0
endloop
endfacet
facet normal 8.20273269294593e-017 1.0 1.19393742204649e-016
outer loop
vertex 5.0 2.0 29.0
vertex 6.48621902190378 2.0 24.8949888468854
vertex -5.0 2.0 29.0
endloop
endfacet
facet normal 8.20273269294593e-017 1.0 1.19393742204649e-016
outer loop
vertex 5.0 2.0 29.0
vertex -5.0 2.0 29.0
vertex 3.20917638707582e-016 2.0 29.0
endloop
endfacet
facet normal 8.20273269294593e-017 1.0 1.19393742204649e-016
outer loop
vertex -6.5 2.0 21.143074902772
vertex 6.48621902190378 2.0 24.8949888468854
vertex 6.48621902190378 2.0 21.1050111531146
endloop
endfacet
facet normal 8.20273269294593e-017 1.0 1.19393742204649e-016
outer loop
vertex 6.48621902190378 2.0 24.8949888468854
vertex -6.5 2.0 21.143074902772
vertex -6.50000000000001 2.0 24.856925097228
endloop
endfacet
facet normal -0.768221279597376 1.79119465478434e-017 -0.64018439966448
outer loop
vertex -10.0 2.0 23.0
vertex -5.0 -2.0 17.0
vertex -10.0 -2.0 23.0
endloop
endfacet
facet normal -0.768221279597376 1.79119465478434e-017 -0.64018439966448
outer loop
vertex -5.0 -2.0 17.0
vertex -10.0 2.0 23.0
vertex -5.0 1.48982294257187e-017 17.0
endloop
endfacet
facet normal -0.768221279597376 1.79119465478434e-017 -0.64018439966448
outer loop
vertex -5.0 1.48982294257187e-017 17.0
vertex -10.0 2.0 23.0
vertex -5.0 2.0 17.0
endloop
endfacet
facet normal -0.768221279597376 -2.68679198217648e-017 0.64018439966448
outer loop
vertex -5.0 -2.0 29.0
vertex -10.0 2.0 23.0
vertex -10.0 -2.0 23.0
endloop
endfacet
facet normal -0.768221279597376 -2.68679198217648e-017 0.64018439966448
outer loop
vertex -10.0 2.0 23.0
vertex -5.0 -2.0 29.0
vertex -5.0 2.0 29.0
endloop
endfacet
facet normal 0.768221279597376 5.41589564911164e-017 0.640184399664479
outer loop
vertex -6.5 -2.0 21.143074902772
vertex -8.04743758102334 2.0 23.0
vertex -8.04743758102334 -2.0 23.0
endloop
endfacet
facet normal 0.768221279597376 5.41589564911164e-017 0.640184399664479
outer loop
vertex -8.04743758102334 2.0 23.0
vertex -6.5 -2.0 21.143074902772
vertex -6.5 2.0 21.143074902772
endloop
endfacet
facet normal 0.768221279597376 5.41589564911164e-017 -0.64018439966448
outer loop
vertex -8.04743758102334 2.0 23.0
vertex -6.50000000000001 -2.0 24.856925097228
vertex -8.04743758102334 -2.0 23.0
endloop
endfacet
facet normal 0.768221279597376 5.41589564911164e-017 -0.64018439966448
outer loop
vertex -6.50000000000001 -2.0 24.856925097228
vertex -8.04743758102334 2.0 23.0
vertex -6.50000000000001 2.0 24.856925097228
endloop
endfacet
facet normal -1.0 -7.04991620636974e-017 -1.51862155708785e-015
outer loop
vertex -6.50000000000001 2.0 24.856925097228
vertex -6.5 -2.0 21.143074902772
vertex -6.50000000000001 -2.0 24.856925097228
endloop
endfacet
facet normal -1.0 -7.04991620636974e-017 -1.51862155708785e-015
outer loop
vertex -6.5 -2.0 21.143074902772
vertex -6.50000000000001 2.0 24.856925097228
vertex -6.5 2.0 21.143074902772
endloop
endfacet
facet normal 0.0 0.0 -1.0
outer loop
vertex 3.0 2.0 17.0
vertex -2.48236190979496 1.93185165257814 17.0
vertex -3.0 2.0 17.0
endloop
endfacet
facet normal 0.0 0.0 -1.0
outer loop
vertex -2.48236190979496 1.93185165257814 17.0
vertex 3.0 2.0 17.0
vertex -2.0 1.73205080756888 17.0
endloop
endfacet
facet normal 0.0 0.0 -1.0
outer loop
vertex -2.0 1.73205080756888 17.0
vertex 3.0 2.0 17.0
vertex -1.58578643762691 1.4142135623731 17.0
endloop
endfacet
facet normal 0.0 0.0 -1.0
outer loop
vertex -1.58578643762691 1.4142135623731 17.0
vertex 3.0 2.0 17.0
vertex 2.48236190979496 1.93185165257814 17.0
endloop
endfacet
facet normal 0.0 0.0 -1.0
outer loop
vertex -1.58578643762691 1.4142135623731 17.0
vertex 2.48236190979496 1.93185165257814 17.0
vertex -1.26794919243112 1.0 17.0
endloop
endfacet
facet normal 0.0 0.0 -1.0
outer loop
vertex -1.26794919243112 1.0 17.0
vertex 2.48236190979496 1.93185165257814 17.0
vertex -1.06814834742186 0.517638090205043 17.0
endloop
endfacet
facet normal 0.0 0.0 -1.0
outer loop
vertex -1.06814834742186 0.517638090205043 17.0
vertex 2.48236190979496 1.93185165257814 17.0
vertex 2.0 1.73205080756888 17.0
endloop
endfacet
facet normal 0.0 0.0 -1.0
outer loop
vertex -1.06814834742186 0.517638090205043 17.0
vertex 2.0 1.73205080756888 17.0
vertex -1.0 1.6400143716777e-015 17.0
endloop
endfacet
facet normal 0.0 0.0 -1.0
outer loop
vertex -1.0 1.6400143716777e-015 17.0
vertex 2.0 1.73205080756888 17.0
vertex 1.58578643762691 1.4142135623731 17.0
endloop
endfacet
facet normal 0.0 0.0 -1.0
outer loop
vertex -1.0 1.6400143716777e-015 17.0
vertex 1.58578643762691 1.4142135623731 17.0
vertex 1.26794919243112 1.0 17.0
endloop
endfacet
facet normal 0.0 0.0 -1.0
outer loop
vertex -1.0 1.6400143716777e-015 17.0
vertex 1.26794919243112 1.0 17.0
vertex 1.06814834742186 0.517638090205044 17.0
endloop
endfacet
facet normal 0.0 0.0 -1.0
outer loop
vertex -1.0 1.6400143716777e-015 17.0
vertex 1.06814834742186 0.517638090205044 17.0
vertex 1.0 1.07238566038118e-015 17.0
endloop
endfacet
facet normal 0.0 0.0 -1.0
outer loop
vertex -2.48236190979496 -1.93185165257813 17.0
vertex 3.0 -2.0 17.0
vertex -3.0 -2.0 17.0
endloop
endfacet
facet normal 0.0 0.0 -1.0
outer loop
vertex 3.0 -2.0 17.0
vertex -2.48236190979496 -1.93185165257813 17.0
vertex -2.0 -1.73205080756888 17.0
endloop
endfacet
facet normal 0.0 0.0 -1.0
outer loop
vertex 3.0 -2.0 17.0
vertex -2.0 -1.73205080756888 17.0
vertex -1.5857864376269 -1.41421356237309 17.0
endloop
endfacet
facet normal 0.0 0.0 -1.0
outer loop
vertex 3.0 -2.0 17.0
vertex -1.5857864376269 -1.41421356237309 17.0
vertex 2.48236190979496 -1.93185165257814 17.0
endloop
endfacet
facet normal 0.0 0.0 -1.0
outer loop
vertex 2.48236190979496 -1.93185165257814 17.0
vertex -1.5857864376269 -1.41421356237309 17.0
vertex -1.26794919243112 -0.999999999999998 17.0
endloop
endfacet
facet normal 0.0 0.0 -1.0
outer loop
vertex 2.48236190979496 -1.93185165257814 17.0
vertex -1.26794919243112 -0.999999999999998 17.0
vertex -1.06814834742186 -0.51763809020504 17.0
endloop
endfacet
facet normal 0.0 0.0 -1.0
outer loop
vertex 2.48236190979496 -1.93185165257814 17.0
vertex -1.06814834742186 -0.51763809020504 17.0
vertex 2.0 -1.73205080756888 17.0
endloop
endfacet
facet normal 0.0 0.0 -1.0
outer loop
vertex 2.0 -1.73205080756888 17.0
vertex -1.06814834742186 -0.51763809020504 17.0
vertex -1.0 1.6400143716777e-015 17.0
endloop
endfacet
facet normal 0.0 0.0 -1.0
outer loop
vertex 2.0 -1.73205080756888 17.0
vertex -1.0 1.6400143716777e-015 17.0
vertex 1.5857864376269 -1.41421356237309 17.0
endloop
endfacet
facet normal 0.0 0.0 -1.0
outer loop
vertex 1.5857864376269 -1.41421356237309 17.0
vertex -1.0 1.6400143716777e-015 17.0
vertex 1.26794919243112 -0.999999999999998 17.0
endloop
endfacet
facet normal 0.0 0.0 -1.0
outer loop
vertex 1.26794919243112 -0.999999999999998 17.0
vertex -1.0 1.6400143716777e-015 17.0
vertex 1.06814834742186 -0.51763809020504 17.0
endloop
endfacet
facet normal 0.0 0.0 -1.0
outer loop
vertex 1.06814834742186 -0.51763809020504 17.0
vertex -1.0 1.6400143716777e-015 17.0
vertex 1.0 1.07238566038118e-015 17.0
endloop
endfacet
facet normal 0.0 0.0 -1.0
outer loop
vertex 5.0 2.0 17.0
vertex 3.51763809020504 1.93185165257814 17.0
vertex 3.0 2.0 17.0
endloop
endfacet
facet normal 0.0 0.0 -1.0
outer loop
vertex 3.51763809020504 1.93185165257814 17.0
vertex 5.0 2.0 17.0
vertex 4.0 1.73205080756888 17.0
endloop
endfacet
facet normal 0.0 0.0 -1.0
outer loop
vertex 4.0 1.73205080756888 17.0
vertex 5.0 2.0 17.0
vertex 4.41421356237309 1.4142135623731 17.0
endloop
endfacet
facet normal 0.0 0.0 -1.0
outer loop
vertex 4.41421356237309 1.4142135623731 17.0
vertex 5.0 2.0 17.0
vertex 4.73205080756888 1.0 17.0
endloop
endfacet
facet normal 0.0 0.0 -1.0
outer loop
vertex 4.73205080756888 1.0 17.0
vertex 5.0 2.0 17.0
vertex 4.93185165257814 0.517638090205042 17.0
endloop
endfacet
facet normal 0.0 0.0 -1.0
outer loop
vertex 4.93185165257814 0.517638090205042 17.0
vertex 5.0 2.0 17.0
vertex 5.0 5.82526940722239e-016 17.0
endloop
endfacet
facet normal 0.0 0.0 -1.0
outer loop
vertex 3.51763809020504 -1.93185165257814 17.0
vertex 5.0 -2.0 17.0
vertex 3.0 -2.0 17.0
endloop
endfacet
facet normal 0.0 0.0 -1.0
outer loop
vertex 5.0 -2.0 17.0
vertex 3.51763809020504 -1.93185165257814 17.0
vertex 4.0 -1.73205080756888 17.0
endloop
endfacet
facet normal 0.0 0.0 -1.0
outer loop
vertex 5.0 -2.0 17.0
vertex 4.0 -1.73205080756888 17.0
vertex 4.41421356237309 -1.41421356237309 17.0
endloop
endfacet
facet normal 0.0 0.0 -1.0
outer loop
vertex 5.0 -2.0 17.0
vertex 4.41421356237309 -1.41421356237309 17.0
vertex 4.73205080756888 -1.0 17.0
endloop
endfacet
facet normal 0.0 0.0 -1.0
outer loop
vertex 5.0 -2.0 17.0
vertex 4.73205080756888 -1.0 17.0
vertex 4.93185165257814 -0.517638090205041 17.0
endloop
endfacet
facet normal 0.0 0.0 -1.0
outer loop
vertex 5.0 -2.0 17.0
vertex 4.93185165257814 -0.517638090205041 17.0
vertex 5.0 5.82526940722239e-016 17.0
endloop
endfacet
facet normal 0.0 0.0 -1.0
outer loop
vertex -5.0 2.0 17.0
vertex -4.93185165257814 0.517638090205043 17.0
vertex -5.0 1.48982294257187e-017 17.0
endloop
endfacet
facet normal 0.0 0.0 -1.0
outer loop
vertex -4.93185165257814 0.517638090205043 17.0
vertex -5.0 2.0 17.0
vertex -4.73205080756888 1.0 17.0
endloop
endfacet
facet normal 0.0 0.0 -1.0
outer loop
vertex -4.73205080756888 1.0 17.0
vertex -5.0 2.0 17.0
vertex -4.41421356237309 1.4142135623731 17.0
endloop
endfacet
facet normal 0.0 0.0 -1.0
outer loop
vertex -4.41421356237309 1.4142135623731 17.0
vertex -5.0 2.0 17.0
vertex -4.0 1.73205080756888 17.0
endloop
endfacet
facet normal 0.0 0.0 -1.0
outer loop
vertex -4.0 1.73205080756888 17.0
vertex -5.0 2.0 17.0
vertex -3.51763809020504 1.93185165257814 17.0
endloop
endfacet
facet normal 0.0 0.0 -1.0
outer loop
vertex -3.51763809020504 1.93185165257814 17.0
vertex -5.0 2.0 17.0
vertex -3.0 2.0 17.0
endloop
endfacet
facet normal 0.0 0.0 -1.0
outer loop
vertex -4.93185165257814 -0.517638090205041 17.0
vertex -5.0 -2.0 17.0
vertex -5.0 1.48982294257187e-017 17.0
endloop
endfacet
facet normal 0.0 0.0 -1.0
outer loop
vertex -5.0 -2.0 17.0
vertex -4.93185165257814 -0.517638090205041 17.0
vertex -4.73205080756888 -0.999999999999999 17.0
endloop
endfacet
facet normal 0.0 0.0 -1.0
outer loop
vertex -5.0 -2.0 17.0
vertex -4.73205080756888 -0.999999999999999 17.0
vertex -4.41421356237309 -1.41421356237309 17.0
endloop
endfacet
facet normal 0.0 0.0 -1.0
outer loop
vertex -5.0 -2.0 17.0
vertex -4.41421356237309 -1.41421356237309 17.0
vertex -4.0 -1.73205080756888 17.0
endloop
endfacet
facet normal 0.0 0.0 -1.0
outer loop
vertex -5.0 -2.0 17.0
vertex -4.0 -1.73205080756888 17.0
vertex -3.51763809020504 -1.93185165257814 17.0
endloop
endfacet
facet normal 0.0 0.0 -1.0
outer loop
vertex -5.0 -2.0 17.0
vertex -3.51763809020504 -1.93185165257814 17.0
vertex -3.0 -2.0 17.0
endloop
endfacet
facet normal 0.99144486137381 0.130526192220052 0.0
outer loop
vertex 4.93185165257814 0.517638090205042 2.0
vertex 5.0 5.82526940722239e-016 17.0
vertex 5.0 5.82526940722239e-016 2.0
endloop
endfacet
facet normal 0.99144486137381 0.130526192220052 0.0
outer loop
vertex 5.0 5.82526940722239e-016 17.0
vertex 4.93185165257814 0.517638090205042 2.0
vertex 4.93185165257814 0.517638090205042 17.0
endloop
endfacet
facet normal 0.99144486137381 -0.130526192220052 0.0
outer loop
vertex 5.0 5.82526940722239e-016 2.0
vertex 4.93185165257814 -0.517638090205041 17.0
vertex 4.93185165257814 -0.517638090205041 2.0
endloop
endfacet
facet normal 0.99144486137381 -0.130526192220052 0.0
outer loop
vertex 4.93185165257814 -0.517638090205041 17.0
vertex 5.0 5.82526940722239e-016 2.0
vertex 5.0 5.82526940722239e-016 17.0
endloop
endfacet
facet normal 0.923879532511286 -0.382683432365091 0.0
outer loop
vertex 4.93185165257814 -0.517638090205041 2.0
vertex 4.73205080756888 -1.0 17.0
vertex 4.73205080756888 -1.0 2.0
endloop
endfacet
facet normal 0.923879532511286 -0.382683432365091 0.0
outer loop
vertex 4.73205080756888 -1.0 17.0
vertex 4.93185165257814 -0.517638090205041 2.0
vertex 4.93185165257814 -0.517638090205041 17.0
endloop
endfacet
facet normal 0.793353340291235 -0.60876142900872 0.0
outer loop
vertex 4.73205080756888 -1.0 2.0
vertex 4.41421356237309 -1.41421356237309 17.0
vertex 4.41421356237309 -1.41421356237309 2.0
endloop
endfacet
facet normal 0.793353340291235 -0.60876142900872 0.0
outer loop
vertex 4.41421356237309 -1.41421356237309 17.0
vertex 4.73205080756888 -1.0 2.0
vertex 4.73205080756888 -1.0 17.0
endloop
endfacet
facet normal 0.60876142900872 -0.793353340291235 0.0
outer loop
vertex 4.41421356237309 -1.41421356237309 17.0
vertex 4.0 -1.73205080756888 2.0
vertex 4.41421356237309 -1.41421356237309 2.0
endloop
endfacet
facet normal 0.60876142900872 -0.793353340291235 0.0
outer loop
vertex 4.0 -1.73205080756888 2.0
vertex 4.41421356237309 -1.41421356237309 17.0
vertex 4.0 -1.73205080756888 17.0
endloop
endfacet
facet normal 0.38268343236509 -0.923879532511287 0.0
outer loop
vertex 4.0 -1.73205080756888 17.0
vertex 3.51763809020504 -1.93185165257814 2.0
vertex 4.0 -1.73205080756888 2.0
endloop
endfacet
facet normal 0.38268343236509 -0.923879532511287 0.0
outer loop
vertex 3.51763809020504 -1.93185165257814 2.0
vertex 4.0 -1.73205080756888 17.0
vertex 3.51763809020504 -1.93185165257814 17.0
endloop
endfacet
facet normal -0.38268343236509 -0.923879532511287 0.0
outer loop
vertex 2.48236190979496 -1.93185165257814 17.0
vertex 2.0 -1.73205080756888 2.0
vertex 2.48236190979496 -1.93185165257814 2.0
endloop
endfacet
facet normal -0.38268343236509 -0.923879532511287 0.0
outer loop
vertex 2.0 -1.73205080756888 2.0
vertex 2.48236190979496 -1.93185165257814 17.0
vertex 2.0 -1.73205080756888 17.0
endloop
endfacet
facet normal -0.608761429008721 -0.793353340291235 0.0
outer loop
vertex 2.0 -1.73205080756888 17.0
vertex 1.5857864376269 -1.41421356237309 2.0
vertex 2.0 -1.73205080756888 2.0
endloop
endfacet
facet normal -0.608761429008721 -0.793353340291235 0.0
outer loop
vertex 1.5857864376269 -1.41421356237309 2.0
vertex 2.0 -1.73205080756888 17.0
vertex 1.5857864376269 -1.41421356237309 17.0
endloop
endfacet
facet normal -0.793353340291236 -0.60876142900872 0.0
outer loop
vertex 1.26794919243112 -0.999999999999998 17.0
vertex 1.5857864376269 -1.41421356237309 2.0
vertex 1.5857864376269 -1.41421356237309 17.0
endloop
endfacet
facet normal -0.793353340291236 -0.60876142900872 0.0
outer loop
vertex 1.5857864376269 -1.41421356237309 2.0
vertex 1.26794919243112 -0.999999999999998 17.0
vertex 1.26794919243112 -0.999999999999998 2.0
endloop
endfacet
facet normal -0.923879532511287 -0.382683432365089 0.0
outer loop
vertex 1.06814834742186 -0.51763809020504 17.0
vertex 1.26794919243112 -0.999999999999998 2.0
vertex 1.26794919243112 -0.999999999999998 17.0
endloop
endfacet
facet normal -0.923879532511287 -0.382683432365089 0.0
outer loop
vertex 1.26794919243112 -0.999999999999998 2.0
vertex 1.06814834742186 -0.51763809020504 17.0
vertex 1.06814834742186 -0.51763809020504 2.0
endloop
endfacet
facet normal -0.991444861373811 -0.130526192220051 0.0
outer loop
vertex 1.0 1.07238566038118e-015 17.0
vertex 1.06814834742186 -0.51763809020504 2.0
vertex 1.06814834742186 -0.51763809020504 17.0
endloop
endfacet
facet normal -0.991444861373811 -0.130526192220051 0.0
outer loop
vertex 1.06814834742186 -0.51763809020504 2.0
vertex 1.0 1.07238566038118e-015 17.0
vertex 1.0 1.07238566038118e-015 2.0
endloop
endfacet
facet normal -0.99144486137381 0.130526192220052 0.0
outer loop
vertex 1.06814834742186 0.517638090205044 17.0
vertex 1.0 1.07238566038118e-015 2.0
vertex 1.0 1.07238566038118e-015 17.0
endloop
endfacet
facet normal -0.99144486137381 0.130526192220052 0.0
outer loop
vertex 1.0 1.07238566038118e-015 2.0
vertex 1.06814834742186 0.517638090205044 17.0
vertex 1.06814834742186 0.517638090205044 2.0
endloop
endfacet
facet normal -0.923879532511287 0.38268343236509 0.0
outer loop
vertex 1.26794919243112 1.0 17.0
vertex 1.06814834742186 0.517638090205044 2.0
vertex 1.06814834742186 0.517638090205044 17.0
endloop
endfacet
facet normal -0.923879532511287 0.38268343236509 0.0
outer loop
vertex 1.06814834742186 0.517638090205044 2.0
vertex 1.26794919243112 1.0 17.0
vertex 1.26794919243112 1.0 2.0
endloop
endfacet
facet normal -0.793353340291235 0.608761429008721 0.0
outer loop
vertex 1.58578643762691 1.4142135623731 17.0
vertex 1.26794919243112 1.0 2.0
vertex 1.26794919243112 1.0 17.0
endloop
endfacet
facet normal -0.793353340291235 0.608761429008721 0.0
outer loop
vertex 1.26794919243112 1.0 2.0
vertex 1.58578643762691 1.4142135623731 17.0
vertex 1.58578643762691 1.4142135623731 2.0
endloop
endfacet
facet normal -0.608761429008721 0.793353340291235 0.0
outer loop
vertex 1.58578643762691 1.4142135623731 17.0
vertex 2.0 1.73205080756888 2.0
vertex 1.58578643762691 1.4142135623731 2.0
endloop
endfacet
facet normal -0.608761429008721 0.793353340291235 0.0
outer loop
vertex 2.0 1.73205080756888 2.0
vertex 1.58578643762691 1.4142135623731 17.0
vertex 2.0 1.73205080756888 17.0
endloop
endfacet
facet normal -0.382683432365089 0.923879532511287 0.0
outer loop
vertex 2.0 1.73205080756888 17.0
vertex 2.48236190979496 1.93185165257814 2.0
vertex 2.0 1.73205080756888 2.0
endloop
endfacet
facet normal -0.382683432365089 0.923879532511287 0.0
outer loop
vertex 2.48236190979496 1.93185165257814 2.0
vertex 2.0 1.73205080756888 17.0
vertex 2.48236190979496 1.93185165257814 17.0
endloop
endfacet
facet normal -0.130526192220051 0.99144486137381 0.0
outer loop
vertex 2.48236190979496 1.93185165257814 17.0
vertex 3.0 2.0 2.0
vertex 2.48236190979496 1.93185165257814 2.0
endloop
endfacet
facet normal -0.130526192220051 0.99144486137381 0.0
outer loop
vertex 3.0 2.0 2.0
vertex 2.48236190979496 1.93185165257814 17.0
vertex 3.0 2.0 17.0
endloop
endfacet
facet normal 0.130526192220052 0.99144486137381 0.0
outer loop
vertex 3.0 2.0 17.0
vertex 3.51763809020504 1.93185165257814 2.0
vertex 3.0 2.0 2.0
endloop
endfacet
facet normal 0.130526192220052 0.99144486137381 0.0
outer loop
vertex 3.51763809020504 1.93185165257814 2.0
vertex 3.0 2.0 17.0
vertex 3.51763809020504 1.93185165257814 17.0
endloop
endfacet
facet normal 0.38268343236509 0.923879532511287 0.0
outer loop
vertex 3.51763809020504 1.93185165257814 17.0
vertex 4.0 1.73205080756888 2.0
vertex 3.51763809020504 1.93185165257814 2.0
endloop
endfacet
facet normal 0.38268343236509 0.923879532511287 0.0
outer loop
vertex 4.0 1.73205080756888 2.0
vertex 3.51763809020504 1.93185165257814 17.0
vertex 4.0 1.73205080756888 17.0
endloop
endfacet
facet normal 0.608761429008721 0.793353340291234 0.0
outer loop
vertex 4.0 1.73205080756888 17.0
vertex 4.41421356237309 1.4142135623731 2.0
vertex 4.0 1.73205080756888 2.0
endloop
endfacet
facet normal 0.608761429008721 0.793353340291234 0.0
outer loop
vertex 4.41421356237309 1.4142135623731 2.0
vertex 4.0 1.73205080756888 17.0
vertex 4.41421356237309 1.4142135623731 17.0
endloop
endfacet
facet normal 0.793353340291235 0.608761429008721 0.0
outer loop
vertex 4.41421356237309 1.4142135623731 2.0
vertex 4.73205080756888 1.0 17.0
vertex 4.73205080756888 1.0 2.0
endloop
endfacet
facet normal 0.793353340291235 0.608761429008721 0.0
outer loop
vertex 4.73205080756888 1.0 17.0
vertex 4.41421356237309 1.4142135623731 2.0
vertex 4.41421356237309 1.4142135623731 17.0
endloop
endfacet
facet normal 0.923879532511287 0.38268343236509 0.0
outer loop
vertex 4.73205080756888 1.0 2.0
vertex 4.93185165257814 0.517638090205042 17.0
vertex 4.93185165257814 0.517638090205042 2.0
endloop
endfacet
facet normal 0.923879532511287 0.38268343236509 0.0
outer loop
vertex 4.93185165257814 0.517638090205042 17.0
vertex 4.73205080756888 1.0 2.0
vertex 4.73205080756888 1.0 17.0
endloop
endfacet
facet normal 0.130526192220052 -0.99144486137381 0.0
outer loop
vertex -2.48236190979496 -1.93185165257813 17.0
vertex -3.0 -2.0 2.00000000000001
vertex -2.48236190979496 -1.93185165257813 2.00000000000001
endloop
endfacet
facet normal 0.130526192220052 -0.99144486137381 0.0
outer loop
vertex -3.0 -2.0 2.00000000000001
vertex -2.48236190979496 -1.93185165257813 17.0
vertex -3.0 -2.0 17.0
endloop
endfacet
facet normal -0.130526192220051 -0.99144486137381 0.0
outer loop
vertex -3.0 -2.0 17.0
vertex -3.51763809020504 -1.93185165257814 2.00000000000001
vertex -3.0 -2.0 2.00000000000001
endloop
endfacet
facet normal -0.130526192220051 -0.99144486137381 0.0
outer loop
vertex -3.51763809020504 -1.93185165257814 2.00000000000001
vertex -3.0 -2.0 17.0
vertex -3.51763809020504 -1.93185165257814 17.0
endloop
endfacet
facet normal -0.38268343236509 -0.923879532511287 0.0
outer loop
vertex -3.51763809020504 -1.93185165257814 17.0
vertex -4.0 -1.73205080756888 2.00000000000001
vertex -3.51763809020504 -1.93185165257814 2.00000000000001
endloop
endfacet
facet normal -0.38268343236509 -0.923879532511287 0.0
outer loop
vertex -4.0 -1.73205080756888 2.00000000000001
vertex -3.51763809020504 -1.93185165257814 17.0
vertex -4.0 -1.73205080756888 17.0
endloop
endfacet
facet normal -0.608761429008721 -0.793353340291235 0.0
outer loop
vertex -4.0 -1.73205080756888 17.0
vertex -4.41421356237309 -1.41421356237309 2.00000000000001
vertex -4.0 -1.73205080756888 2.00000000000001
endloop
endfacet
facet normal -0.608761429008721 -0.793353340291235 0.0
outer loop
vertex -4.41421356237309 -1.41421356237309 2.00000000000001
vertex -4.0 -1.73205080756888 17.0
vertex -4.41421356237309 -1.41421356237309 17.0
endloop
endfacet
facet normal -0.793353340291235 -0.608761429008721 0.0
outer loop
vertex -4.73205080756888 -0.999999999999999 17.0
vertex -4.41421356237309 -1.41421356237309 2.00000000000001
vertex -4.41421356237309 -1.41421356237309 17.0
endloop
endfacet
facet normal -0.793353340291235 -0.608761429008721 0.0
outer loop
vertex -4.41421356237309 -1.41421356237309 2.00000000000001
vertex -4.73205080756888 -0.999999999999999 17.0
vertex -4.73205080756888 -0.999999999999999 2.00000000000001
endloop
endfacet
facet normal -0.923879532511287 -0.382683432365089 0.0
outer loop
vertex -4.93185165257814 -0.517638090205041 17.0
vertex -4.73205080756888 -0.999999999999999 2.00000000000001
vertex -4.73205080756888 -0.999999999999999 17.0
endloop
endfacet
facet normal -0.923879532511287 -0.382683432365089 0.0
outer loop
vertex -4.73205080756888 -0.999999999999999 2.00000000000001
vertex -4.93185165257814 -0.517638090205041 17.0
vertex -4.93185165257814 -0.517638090205041 2.00000000000001
endloop
endfacet
facet normal -0.99144486137381 -0.130526192220052 0.0
outer loop
vertex -5.0 1.48982294257187e-017 17.0
vertex -4.93185165257814 -0.517638090205041 2.00000000000001
vertex -4.93185165257814 -0.517638090205041 17.0
endloop
endfacet
facet normal -0.99144486137381 -0.130526192220052 0.0
outer loop
vertex -4.93185165257814 -0.517638090205041 2.00000000000001
vertex -5.0 1.48982294257187e-017 17.0
vertex -5.0 1.48982294257187e-017 2.00000000000001
endloop
endfacet
facet normal -0.99144486137381 0.130526192220051 0.0
outer loop
vertex -4.93185165257814 0.517638090205043 17.0
vertex -5.0 1.48982294257187e-017 2.00000000000001
vertex -5.0 1.48982294257187e-017 17.0
endloop
endfacet
facet normal -0.99144486137381 0.130526192220051 0.0
outer loop
vertex -5.0 1.48982294257187e-017 2.00000000000001
vertex -4.93185165257814 0.517638090205043 17.0
vertex -4.93185165257814 0.517638090205043 2.00000000000001
endloop
endfacet
facet normal -0.923879532511287 0.38268343236509 0.0
outer loop
vertex -4.73205080756888 1.0 17.0
vertex -4.93185165257814 0.517638090205043 2.00000000000001
vertex -4.93185165257814 0.517638090205043 17.0
endloop
endfacet
facet normal -0.923879532511287 0.38268343236509 0.0
outer loop
vertex -4.93185165257814 0.517638090205043 2.00000000000001
vertex -4.73205080756888 1.0 17.0
vertex -4.73205080756888 1.0 2.00000000000001
endloop
endfacet
facet normal -0.793353340291235 0.608761429008721 0.0
outer loop
vertex -4.41421356237309 1.4142135623731 17.0
vertex -4.73205080756888 1.0 2.00000000000001
vertex -4.73205080756888 1.0 17.0
endloop
endfacet
facet normal -0.793353340291235 0.608761429008721 0.0
outer loop
vertex -4.73205080756888 1.0 2.00000000000001
vertex -4.41421356237309 1.4142135623731 17.0
vertex -4.41421356237309 1.4142135623731 2.00000000000001
endloop
endfacet
facet normal -0.608761429008721 0.793353340291235 0.0
outer loop
vertex -4.41421356237309 1.4142135623731 17.0
vertex -4.0 1.73205080756888 2.00000000000001
vertex -4.41421356237309 1.4142135623731 2.00000000000001
endloop
endfacet
facet normal -0.608761429008721 0.793353340291235 0.0
outer loop
vertex -4.0 1.73205080756888 2.00000000000001
vertex -4.41421356237309 1.4142135623731 17.0
vertex -4.0 1.73205080756888 17.0
endloop
endfacet
facet normal -0.382683432365089 0.923879532511287 0.0
outer loop
vertex -4.0 1.73205080756888 17.0
vertex -3.51763809020504 1.93185165257814 2.00000000000001
vertex -4.0 1.73205080756888 2.00000000000001
endloop
endfacet
facet normal -0.382683432365089 0.923879532511287 0.0
outer loop
vertex -3.51763809020504 1.93185165257814 2.00000000000001
vertex -4.0 1.73205080756888 17.0
vertex -3.51763809020504 1.93185165257814 17.0
endloop
endfacet
facet normal -0.130526192220052 0.99144486137381 0.0
outer loop
vertex -3.51763809020504 1.93185165257814 17.0
vertex -3.0 2.0 2.00000000000001
vertex -3.51763809020504 1.93185165257814 2.00000000000001
endloop
endfacet
facet normal -0.130526192220052 0.99144486137381 0.0
outer loop
vertex -3.0 2.0 2.00000000000001
vertex -3.51763809020504 1.93185165257814 17.0
vertex -3.0 2.0 17.0
endloop
endfacet
facet normal 0.130526192220051 0.99144486137381 0.0
outer loop
vertex -3.0 2.0 17.0
vertex -2.48236190979496 1.93185165257814 2.00000000000001
vertex -3.0 2.0 2.00000000000001
endloop
endfacet
facet normal 0.130526192220051 0.99144486137381 0.0
outer loop
vertex -2.48236190979496 1.93185165257814 2.00000000000001
vertex -3.0 2.0 17.0
vertex -2.48236190979496 1.93185165257814 17.0
endloop
endfacet
facet normal 0.382683432365089 0.923879532511287 0.0
outer loop
vertex -2.48236190979496 1.93185165257814 17.0
vertex -2.0 1.73205080756888 2.00000000000001
vertex -2.48236190979496 1.93185165257814 2.00000000000001
endloop
endfacet
facet normal 0.382683432365089 0.923879532511287 0.0
outer loop
vertex -2.0 1.73205080756888 2.00000000000001
vertex -2.48236190979496 1.93185165257814 17.0
vertex -2.0 1.73205080756888 17.0
endloop
endfacet
facet normal 0.608761429008721 0.793353340291235 0.0
outer loop
vertex -2.0 1.73205080756888 17.0
vertex -1.58578643762691 1.4142135623731 2.00000000000001
vertex -2.0 1.73205080756888 2.00000000000001
endloop
endfacet
facet normal 0.608761429008721 0.793353340291235 0.0
outer loop
vertex -1.58578643762691 1.4142135623731 2.00000000000001
vertex -2.0 1.73205080756888 17.0
vertex -1.58578643762691 1.4142135623731 17.0
endloop
endfacet
facet normal 0.793353340291235 0.608761429008721 0.0
outer loop
vertex -1.58578643762691 1.4142135623731 2.00000000000001
vertex -1.26794919243112 1.0 17.0
vertex -1.26794919243112 1.0 2.00000000000001
endloop
endfacet
facet normal 0.793353340291235 0.608761429008721 0.0
outer loop
vertex -1.26794919243112 1.0 17.0
vertex -1.58578643762691 1.4142135623731 2.00000000000001
vertex -1.58578643762691 1.4142135623731 17.0
endloop
endfacet
facet normal 0.923879532511287 0.38268343236509 0.0
outer loop
vertex -1.26794919243112 1.0 2.00000000000001
vertex -1.06814834742186 0.517638090205043 17.0
vertex -1.06814834742186 0.517638090205043 2.00000000000001
endloop
endfacet
facet normal 0.923879532511287 0.38268343236509 0.0
outer loop
vertex -1.06814834742186 0.517638090205043 17.0
vertex -1.26794919243112 1.0 2.00000000000001
vertex -1.26794919243112 1.0 17.0
endloop
endfacet
facet normal 0.99144486137381 0.130526192220052 0.0
outer loop
vertex -1.06814834742186 0.517638090205043 2.00000000000001
vertex -1.0 1.6400143716777e-015 17.0
vertex -1.0 1.6400143716777e-015 2.00000000000001
endloop
endfacet
facet normal 0.99144486137381 0.130526192220052 0.0
outer loop
vertex -1.0 1.6400143716777e-015 17.0
vertex -1.06814834742186 0.517638090205043 2.00000000000001
vertex -1.06814834742186 0.517638090205043 17.0
endloop
endfacet
facet normal 0.99144486137381 -0.130526192220051 0.0
outer loop
vertex -1.0 1.6400143716777e-015 2.00000000000001
vertex -1.06814834742186 -0.51763809020504 17.0
vertex -1.06814834742186 -0.51763809020504 2.00000000000001
endloop
endfacet
facet normal 0.99144486137381 -0.130526192220051 0.0
outer loop
vertex -1.06814834742186 -0.51763809020504 17.0
vertex -1.0 1.6400143716777e-015 2.00000000000001
vertex -1.0 1.6400143716777e-015 17.0
endloop
endfacet
facet normal 0.923879532511287 -0.38268343236509 0.0
outer loop
vertex -1.06814834742186 -0.51763809020504 2.00000000000001
vertex -1.26794919243112 -0.999999999999998 17.0
vertex -1.26794919243112 -0.999999999999998 2.00000000000001
endloop
endfacet
facet normal 0.923879532511287 -0.38268343236509 0.0
outer loop
vertex -1.26794919243112 -0.999999999999998 17.0
vertex -1.06814834742186 -0.51763809020504 2.00000000000001
vertex -1.06814834742186 -0.51763809020504 17.0
endloop
endfacet
facet normal 0.793353340291235 -0.60876142900872 0.0
outer loop
vertex -1.26794919243112 -0.999999999999998 2.00000000000001
vertex -1.5857864376269 -1.41421356237309 17.0
vertex -1.5857864376269 -1.41421356237309 2.00000000000001
endloop
endfacet
facet normal 0.793353340291235 -0.60876142900872 0.0
outer loop
vertex -1.5857864376269 -1.41421356237309 17.0
vertex -1.26794919243112 -0.999999999999998 2.00000000000001
vertex -1.26794919243112 -0.999999999999998 17.0
endloop
endfacet
facet normal 0.608761429008721 -0.793353340291235 0.0
outer loop
vertex -1.5857864376269 -1.41421356237309 17.0
vertex -2.0 -1.73205080756888 2.00000000000001
vertex -1.5857864376269 -1.41421356237309 2.00000000000001
endloop
endfacet
facet normal 0.608761429008721 -0.793353340291235 0.0
outer loop
vertex -2.0 -1.73205080756888 2.00000000000001
vertex -1.5857864376269 -1.41421356237309 17.0
vertex -2.0 -1.73205080756888 17.0
endloop
endfacet
facet normal 0.38268343236509 -0.923879532511287 0.0
outer loop
vertex -2.0 -1.73205080756888 17.0
vertex -2.48236190979496 -1.93185165257813 2.00000000000001
vertex -2.0 -1.73205080756888 2.00000000000001
endloop
endfacet
facet normal 0.38268343236509 -0.923879532511287 0.0
outer loop
vertex -2.48236190979496 -1.93185165257813 2.00000000000001
vertex -2.0 -1.73205080756888 17.0
vertex -2.48236190979496 -1.93185165257813 17.0
endloop
endfacet
facet normal -0.130526192220052 -0.99144486137381 0.0
outer loop
vertex 3.0 -2.0 17.0
vertex 2.48236190979496 -1.93185165257814 2.0
vertex 3.0 -2.0 2.0
endloop
endfacet
facet normal -0.130526192220052 -0.99144486137381 0.0
outer loop
vertex 2.48236190979496 -1.93185165257814 2.0
vertex 3.0 -2.0 17.0
vertex 2.48236190979496 -1.93185165257814 17.0
endloop
endfacet
facet normal 0.130526192220052 -0.99144486137381 0.0
outer loop
vertex 3.51763809020504 -1.93185165257814 17.0
vertex 3.0 -2.0 2.0
vertex 3.51763809020504 -1.93185165257814 2.0
endloop
endfacet
facet normal 0.130526192220052 -0.99144486137381 0.0
outer loop
vertex 3.0 -2.0 2.0
vertex 3.51763809020504 -1.93185165257814 17.0
vertex 3.0 -2.0 17.0
endloop
endfacet
endsolid man
